<svg id="icon" xmlns="http://www.w3.org/2000/svg" viewBox="0 0 30 20"><defs><style>.cls-1{fill:#3d4649;}</style></defs><title>Artboard 1 copy</title><path class="cls-1" d="M20.5,4.15a5.17,5.17,0,0,0-5.06,4.13.63.63,0,0,0,.5.76.65.65,0,0,0,.77-.5,3.86,3.86,0,1,1,6.35,3.67.66.66,0,0,0,0,.92.67.67,0,0,0,.49.21.66.66,0,0,0,.43-.16,5.16,5.16,0,0,0-3.43-9Z"/><path class="cls-1" d="M20.5,3.59a.65.65,0,0,0,.65-.65V.81a.65.65,0,1,0-1.3,0V2.94A.65.65,0,0,0,20.5,3.59Z"/><path class="cls-1" d="M29,8.67H26.88a.65.65,0,1,0,0,1.3H29a.65.65,0,0,0,0-1.3Z"/><path class="cls-1" d="M25.08,5.43a.62.62,0,0,0,.46-.19l1.51-1.5a.66.66,0,0,0,0-.92.64.64,0,0,0-.92,0l-1.51,1.5a.66.66,0,0,0,0,.92A.65.65,0,0,0,25.08,5.43Z"/><path class="cls-1" d="M15.5,5.19a.65.65,0,0,0,.46.19.62.62,0,0,0,.46-.19.64.64,0,0,0,0-.92l-1.5-1.5a.64.64,0,0,0-.92,0,.66.66,0,0,0,0,.92Z"/><path class="cls-1" d="M25.49,13.44a.65.65,0,0,0-.92.92l1.51,1.5a.62.62,0,0,0,.46.19.65.65,0,0,0,.46-.19.66.66,0,0,0,0-.92Z"/><path class="cls-1" d="M18.25,11.85A2.89,2.89,0,0,0,14,9.93a5.69,5.69,0,0,0-10.46,3,3.45,3.45,0,0,0,.17,6.89H18.79a4,4,0,1,0-.54-8Zm.54,6.69h-15a2.16,2.16,0,0,1,0-4.31,1.65,1.65,0,0,1,.32,0,.69.69,0,0,0,.4-.08A.81.81,0,0,0,4.76,14a.64.64,0,0,0,.16-.51l0-.18a3,3,0,0,1,0-.31,4.38,4.38,0,0,1,8.36-1.84.64.64,0,0,0,.48.36.63.63,0,0,0,.58-.19,1.56,1.56,0,0,1,1.14-.48A1.6,1.6,0,0,1,17,12.51v.1a.65.65,0,0,0,.25.58.66.66,0,0,0,.62.1,2.59,2.59,0,0,1,.92-.18,2.72,2.72,0,0,1,0,5.43Z"/></svg>