<svg xmlns="http://www.w3.org/2000/svg" viewBox="0 0 289.83 270.28"><defs><style>.cls-1{fill:#231f20;}.cls-2{fill:#027866;}</style></defs><path class="cls-1" d="M1.86,189.39H18.59a.75.75,0,0,1,.67.42l12.19,25.4h.15l12.27-25.4a.75.75,0,0,1,.67-.42H61.2a.75.75,0,0,1,.75.75v52.34a.75.75,0,0,1-.75.75H50.83a.75.75,0,0,1-.75-.75V205.05h-.15L36,231.42a.75.75,0,0,1-.66.4H27.2a.75.75,0,0,1-.67-.41l-13.4-26.36H13v37.42a.75.75,0,0,1-.75.75H1.86a.75.75,0,0,1-.75-.75V190.14A.75.75,0,0,1,1.86,189.39Z"/><path class="cls-1" d="M91.07,189.39H100a.7.7,0,0,1,.64.42l22.81,52.44a.7.7,0,0,1-.64,1H110.93a.7.7,0,0,1-.65-.44L106,232.26a.7.7,0,0,0-.65-.44h-20a.7.7,0,0,0-.65.44L80.6,242.78a.7.7,0,0,1-.65.44H68.41a.7.7,0,0,1-.64-1l22.66-52.44A.7.7,0,0,1,91.07,189.39Zm3.45,17.32L89,220.83a.7.7,0,0,0,.65,1h11.1a.7.7,0,0,0,.65-1l-5.58-14.12A.7.7,0,0,0,94.53,206.71Z"/><path class="cls-1" d="M161.92,203a.7.7,0,0,1-1-.08,11.63,11.63,0,0,0-3.85-2.76,14.31,14.31,0,0,0-5.89-1.14,14.76,14.76,0,0,0-11.14,4.9,16.84,16.84,0,0,0-3.27,5.51,21,21,0,0,0,0,13.88,17.29,17.29,0,0,0,3.23,5.48,14.64,14.64,0,0,0,4.83,3.61,14,14,0,0,0,6,1.29,13.36,13.36,0,0,0,6.46-1.52,12.8,12.8,0,0,0,4.26-3.71.65.65,0,0,1,.91-.15l8.77,6.55a.74.74,0,0,1,.15,1,20.49,20.49,0,0,1-8.23,6.48,26.81,26.81,0,0,1-10.8,2.28,33.13,33.13,0,0,1-11.63-2,26.57,26.57,0,0,1-9.2-5.66,25.66,25.66,0,0,1-6-8.94,32.73,32.73,0,0,1,0-23.42,25.7,25.7,0,0,1,6-8.93,26.61,26.61,0,0,1,9.2-5.66,33.13,33.13,0,0,1,11.63-2,28.64,28.64,0,0,1,4.75.42,25.72,25.72,0,0,1,4.87,1.33,21.67,21.67,0,0,1,4.6,2.43,18.11,18.11,0,0,1,3.48,3.15.74.74,0,0,1-.1,1Z"/><path class="cls-1" d="M198,189.39h8.83a.74.74,0,0,1,.68.45l22.77,52.35a.74.74,0,0,1-.68,1H217.87a.74.74,0,0,1-.69-.46l-4.26-10.48a.74.74,0,0,0-.69-.46H192.32a.74.74,0,0,0-.69.47l-4.12,10.46a.74.74,0,0,1-.69.47H175.38a.74.74,0,0,1-.68-1l22.63-52.35A.74.74,0,0,1,198,189.39Zm3.39,17.42-5.46,14a.74.74,0,0,0,.69,1h11a.74.74,0,0,0,.69-1l-5.52-14A.74.74,0,0,0,201.4,206.81Z"/><path class="cls-1" d="M231.74,216.31a30.43,30.43,0,0,1,2.17-11.71,25.7,25.7,0,0,1,6-8.93,26.61,26.61,0,0,1,9.2-5.66,35.21,35.21,0,0,1,23.27,0,26.63,26.63,0,0,1,9.2,5.66,25.69,25.69,0,0,1,6,8.93,32.7,32.7,0,0,1,0,23.42,25.66,25.66,0,0,1-6,8.94,26.59,26.59,0,0,1-9.2,5.66,35.2,35.2,0,0,1-23.27,0A26.57,26.57,0,0,1,240,237a25.67,25.67,0,0,1-6-8.94A30.41,30.41,0,0,1,231.74,216.31Zm12.32,0a19.74,19.74,0,0,0,1.18,7,15.94,15.94,0,0,0,3.38,5.48,15.44,15.44,0,0,0,5.29,3.61,18.95,18.95,0,0,0,13.76,0,15.46,15.46,0,0,0,5.29-3.61,15.94,15.94,0,0,0,3.38-5.48,21,21,0,0,0,0-13.88,15.88,15.88,0,0,0-3.38-5.51,15.49,15.49,0,0,0-5.29-3.61,18.95,18.95,0,0,0-13.76,0,15.47,15.47,0,0,0-5.29,3.61,15.89,15.89,0,0,0-3.38,5.51A19.84,19.84,0,0,0,244.06,216.31Z"/><path class="cls-1" d="M12.41,256.9a.22.22,0,0,1-.31,0,3.74,3.74,0,0,0-1.24-.89A4.6,4.6,0,0,0,9,255.62a4.74,4.74,0,0,0-3.58,1.58A5.41,5.41,0,0,0,4.34,259a6.76,6.76,0,0,0,0,4.46,5.56,5.56,0,0,0,1,1.76,4.7,4.7,0,0,0,1.55,1.16,4.48,4.48,0,0,0,1.92.42,4.29,4.29,0,0,0,2.08-.49,4.11,4.11,0,0,0,1.37-1.19.21.21,0,0,1,.29,0l2.82,2.1a.24.24,0,0,1,0,.33,6.58,6.58,0,0,1-2.65,2.08,8.62,8.62,0,0,1-3.47.73,10.65,10.65,0,0,1-3.74-.64,8.54,8.54,0,0,1-3-1.82A8.25,8.25,0,0,1,.7,265a10.52,10.52,0,0,1,0-7.53,8.26,8.26,0,0,1,1.94-2.87,8.55,8.55,0,0,1,3-1.82,10.65,10.65,0,0,1,3.74-.64,9.21,9.21,0,0,1,1.53.13,8.27,8.27,0,0,1,1.56.43,7,7,0,0,1,1.48.78,5.82,5.82,0,0,1,1.12,1,.24.24,0,0,1,0,.33Z"/><path class="cls-1" d="M18,252.54h3.11a.35.35,0,0,1,.35.35v16.6a.35.35,0,0,1-.35.35H18a.35.35,0,0,1-.35-.35v-16.6A.35.35,0,0,1,18,252.54Z"/><path class="cls-1" d="M28.55,256.47a.56.56,0,0,0-.56-.56H23.8a.19.19,0,0,1-.19-.19v-3a.19.19,0,0,1,.19-.19H37.11a.19.19,0,0,1,.19.19v3a.19.19,0,0,1-.19.19H32.92a.56.56,0,0,0-.56.56v12.81a.56.56,0,0,1-.56.56H29.11a.56.56,0,0,1-.56-.56Z"/><path class="cls-1" d="M44.14,262.57a.37.37,0,0,0-.06-.2l-6.24-9.53a.2.2,0,0,1,.16-.3h4.16a.37.37,0,0,1,.32.19l3.25,5.73a.37.37,0,0,0,.64,0l3.45-5.75a.37.37,0,0,1,.32-.18h4a.19.19,0,0,1,.15.29L48,262.37a.37.37,0,0,0-.06.2v6.9a.37.37,0,0,1-.37.37H44.51a.37.37,0,0,1-.37-.37Z"/><path class="cls-1" d="M62.66,261.19a9.8,9.8,0,0,1,.7-3.77,8.26,8.26,0,0,1,1.95-2.87,8.54,8.54,0,0,1,3-1.82,11.33,11.33,0,0,1,7.48,0,8.56,8.56,0,0,1,3,1.82,8.25,8.25,0,0,1,1.94,2.87,10.52,10.52,0,0,1,0,7.53,8.25,8.25,0,0,1-1.94,2.87,8.57,8.57,0,0,1-3,1.82,11.33,11.33,0,0,1-7.48,0,8.54,8.54,0,0,1-3-1.82A8.26,8.26,0,0,1,63.36,265,9.8,9.8,0,0,1,62.66,261.19Zm4,0a6.3,6.3,0,0,0,.38,2.23,5.08,5.08,0,0,0,1.09,1.76,5,5,0,0,0,1.7,1.16,6.09,6.09,0,0,0,4.42,0,4.94,4.94,0,0,0,1.7-1.16A5.12,5.12,0,0,0,77,263.42,6.75,6.75,0,0,0,77,259a5.11,5.11,0,0,0-1.09-1.77,4.94,4.94,0,0,0-1.7-1.16,6.08,6.08,0,0,0-4.42,0,5,5,0,0,0-1.7,1.16A5.07,5.07,0,0,0,67,259,6.34,6.34,0,0,0,66.63,261.19Z"/><path class="cls-1" d="M84.75,252.54H95.65a.36.36,0,0,1,.36.36v2.8a.36.36,0,0,1-.36.36H88.57a.36.36,0,0,0-.36.36v2.81a.36.36,0,0,0,.36.36h6.5a.36.36,0,0,1,.36.36v2.8a.36.36,0,0,1-.36.36h-6.5a.36.36,0,0,0-.36.36v6a.36.36,0,0,1-.36.36h-3.1a.36.36,0,0,1-.36-.36V252.89A.36.36,0,0,1,84.75,252.54Z"/><path class="cls-1" d="M122.28,268.38a.39.39,0,0,1-.21.34,13.75,13.75,0,0,1-3.31,1.16,17.86,17.86,0,0,1-3.74.39,10.67,10.67,0,0,1-3.74-.64,8.54,8.54,0,0,1-3-1.82,8.26,8.26,0,0,1-1.95-2.87,10.52,10.52,0,0,1,0-7.53,8.26,8.26,0,0,1,1.95-2.87,8.54,8.54,0,0,1,3-1.82,10.67,10.67,0,0,1,3.74-.64,13.84,13.84,0,0,1,3.82.5,7.48,7.48,0,0,1,2.77,1.46.39.39,0,0,1,0,.55L119.47,257a.37.37,0,0,1-.52,0,5.28,5.28,0,0,0-1.49-1,6.26,6.26,0,0,0-2.44-.42,5.66,5.66,0,0,0-2.21.42,5,5,0,0,0-1.7,1.16A5.07,5.07,0,0,0,110,259a6.75,6.75,0,0,0,0,4.46,5.08,5.08,0,0,0,1.09,1.76,5,5,0,0,0,1.7,1.16,5.66,5.66,0,0,0,2.21.42,7.25,7.25,0,0,0,2.15-.28,8,8,0,0,0,1.44-.57v-2.81h-3.1v-3.15a.37.37,0,0,1,.37-.37h6a.37.37,0,0,1,.37.37Z"/><path class="cls-1" d="M131.5,252.54h2.43a.55.55,0,0,1,.5.33l7.26,16.7a.2.2,0,0,1-.18.27h-3.63a.55.55,0,0,1-.51-.34l-1.21-3a.55.55,0,0,0-.51-.34h-6a.55.55,0,0,0-.51.35l-1.17,3a.55.55,0,0,1-.51.35H124a.2.2,0,0,1-.18-.27l7.22-16.7A.55.55,0,0,1,131.5,252.54Zm.93,5.5-1.82,4.65a.2.2,0,0,0,.18.27h3.65a.2.2,0,0,0,.18-.27L132.79,258A.2.2,0,0,0,132.43,258Z"/><path class="cls-1" d="M162.07,256.27a.36.36,0,0,0-.36-.36h-4.37a.2.2,0,0,1-.2-.2v-3a.2.2,0,0,1,.2-.2h13.29a.2.2,0,0,1,.2.2v3a.2.2,0,0,1-.2.2h-4.37a.36.36,0,0,0-.36.36v13.21a.36.36,0,0,1-.36.36h-3.09a.36.36,0,0,1-.36-.36Z"/><path class="cls-1" d="M173.35,252.9a.37.37,0,0,1,.37-.37H180a11.78,11.78,0,0,1,2.5.26,6,6,0,0,1,2.08.86,4.27,4.27,0,0,1,1.42,1.61,5.46,5.46,0,0,1,.53,2.53,5.07,5.07,0,0,1-1,3.12,4.12,4.12,0,0,1-2.3,1.51.36.36,0,0,0-.23.53l4.15,6.89h-4.35a.37.37,0,0,1-.33-.2L179,262.92h-1.88v6.55a.37.37,0,0,1-.37.37h-3.08a.37.37,0,0,1-.37-.37Zm3.81,6.79h2.25c.34,0,.71,0,1.09,0a3.39,3.39,0,0,0,1-.22,1.78,1.78,0,0,0,.77-.58,1.73,1.73,0,0,0,.31-1.1,1.83,1.83,0,0,0-.27-1.05,1.79,1.79,0,0,0-.68-.6,3.12,3.12,0,0,0-1-.28,7.7,7.7,0,0,0-1.05-.07h-2.49Z"/><path class="cls-1" d="M188.57,261.19a9.8,9.8,0,0,1,.7-3.77,8.26,8.26,0,0,1,1.95-2.87,8.54,8.54,0,0,1,3-1.82,11.33,11.33,0,0,1,7.48,0,8.56,8.56,0,0,1,3,1.82,8.25,8.25,0,0,1,1.94,2.87,10.53,10.53,0,0,1,0,7.53,8.25,8.25,0,0,1-1.94,2.87,8.57,8.57,0,0,1-3,1.82,11.33,11.33,0,0,1-7.48,0,8.54,8.54,0,0,1-3-1.82,8.26,8.26,0,0,1-1.95-2.87A9.8,9.8,0,0,1,188.57,261.19Zm4,0a6.3,6.3,0,0,0,.38,2.23,5.08,5.08,0,0,0,1.09,1.76,5,5,0,0,0,1.7,1.16,6.09,6.09,0,0,0,4.42,0,4.94,4.94,0,0,0,1.7-1.16,5.13,5.13,0,0,0,1.09-1.76,6.75,6.75,0,0,0,0-4.46,5.11,5.11,0,0,0-1.09-1.77,4.94,4.94,0,0,0-1.7-1.16,6.08,6.08,0,0,0-4.42,0,5,5,0,0,0-1.7,1.16,5.07,5.07,0,0,0-1.09,1.77A6.34,6.34,0,0,0,192.53,261.19Z"/><path class="cls-1" d="M210.24,252.54h4.61a.37.37,0,0,1,.31.18l7.25,11.85h0V252.9a.37.37,0,0,1,.37-.37h3.08a.37.37,0,0,1,.37.37v16.57a.37.37,0,0,1-.37.37h-4.41a.37.37,0,0,1-.31-.18l-7.45-12.14h0v12a.37.37,0,0,1-.37.37h-3.08a.37.37,0,0,1-.37-.37V252.9A.37.37,0,0,1,210.24,252.54Z"/><path class="cls-1" d="M229.18,261.19a9.8,9.8,0,0,1,.7-3.77,8.26,8.26,0,0,1,1.95-2.87,8.54,8.54,0,0,1,3-1.82,11.33,11.33,0,0,1,7.48,0,8.56,8.56,0,0,1,3,1.82,8.25,8.25,0,0,1,1.94,2.87,10.53,10.53,0,0,1,0,7.53,8.25,8.25,0,0,1-1.94,2.87,8.57,8.57,0,0,1-3,1.82,11.33,11.33,0,0,1-7.48,0,8.54,8.54,0,0,1-3-1.82,8.26,8.26,0,0,1-1.95-2.87A9.8,9.8,0,0,1,229.18,261.19Zm4,0a6.3,6.3,0,0,0,.38,2.23,5.08,5.08,0,0,0,1.09,1.76,5,5,0,0,0,1.7,1.16,6.09,6.09,0,0,0,4.42,0,4.94,4.94,0,0,0,1.7-1.16,5.12,5.12,0,0,0,1.09-1.76,6.75,6.75,0,0,0,0-4.46,5.11,5.11,0,0,0-1.09-1.77,4.94,4.94,0,0,0-1.7-1.16,6.08,6.08,0,0,0-4.42,0,5,5,0,0,0-1.7,1.16,5.07,5.07,0,0,0-1.09,1.77A6.34,6.34,0,0,0,233.14,261.19Z"/><path class="cls-1" d="M251.13,252.54h5.15a.36.36,0,0,1,.34.24l3.9,9.32h0l3.92-9.32a.36.36,0,0,1,.34-.24H270a.36.36,0,0,1,.36.36v16.58a.36.36,0,0,1-.36.36h-3.08a.36.36,0,0,1-.36-.36V256.57h0l-4.55,9.77H259l-4.37-9.77h0v12.91a.36.36,0,0,1-.36.36h-3.08a.36.36,0,0,1-.36-.36V252.9A.36.36,0,0,1,251.13,252.54Z"/><path class="cls-1" d="M278.4,262.56a.34.34,0,0,0-.06-.19l-6.24-9.52a.21.21,0,0,1,.17-.32h4.16a.34.34,0,0,1,.3.17l3.28,5.8a.34.34,0,0,0,.59,0l3.49-5.81a.34.34,0,0,1,.29-.16h3.95a.21.21,0,0,1,.17.32l-6.24,9.52a.34.34,0,0,0-.06.19v6.94a.34.34,0,0,1-.34.34h-3.13a.34.34,0,0,1-.34-.34Z"/><path class="cls-1" d="M154.64,262.17a4.55,4.55,0,0,0-1.48-1.44,8,8,0,0,0-1.92-.83q-1-.29-1.92-.59a5.52,5.52,0,0,1-1.48-.71,1.52,1.52,0,0,1-.34-2,1.8,1.8,0,0,1,.63-.55,3.28,3.28,0,0,1,.83-.31,3.9,3.9,0,0,1,.86-.1,4.49,4.49,0,0,1,1.5.28,2.76,2.76,0,0,1,1.09.71h0a.17.17,0,0,0,.27,0l2.34-2.56a.2.2,0,0,0,0-.29,6.52,6.52,0,0,0-2.31-1.26,9.68,9.68,0,0,0-2.83-.42,8.6,8.6,0,0,0-2.47.36,6.33,6.33,0,0,0-2.11,1.06,5.3,5.3,0,0,0-1.47,1.76,5.19,5.19,0,0,0-.55,2.44,4,4,0,0,0,.6,2.32,4.71,4.71,0,0,0,1.5,1.42,8.79,8.79,0,0,0,2,.86q1.05.32,2,.64a5.54,5.54,0,0,1,1.5.77,1.47,1.47,0,0,1,.6,1.23,1.42,1.42,0,0,1-.23.81,1.88,1.88,0,0,1-.61.56,3.11,3.11,0,0,1-.86.33,4.14,4.14,0,0,1-2.78-.32,4,4,0,0,1-1.35-1,.18.18,0,0,0-.28,0L142.87,268a.2.2,0,0,0,0,.28,7.79,7.79,0,0,0,2.54,1.53,9.3,9.3,0,0,0,3.13.51,9.43,9.43,0,0,0,2.55-.34,6.17,6.17,0,0,0,2.13-1.05,5.12,5.12,0,0,0,1.46-1.79,5.57,5.57,0,0,0,.54-2.52A4.4,4.4,0,0,0,154.64,262.17Z"/><path class="cls-2" d="M250.24,152.45A98.1,98.1,0,0,1,232,164.52h52.23C279.76,159.52,266.42,155.29,250.24,152.45Z"/><path class="cls-2" d="M266.2,80.07c-9.78-14.92-36.45-15.69-60.71-7.32a110.66,110.66,0,0,1-.74,17.33c-3.82,30.52-20.16,46.23-40.54,49.62h0a7.81,7.81,0,0,0-6.71,6.71l-1.3,10.38-1-.69V145a7.81,7.81,0,0,1,5.83-7.49h0C180.78,131.63,195,114,195,83.25,195,44.65,172.6,0,144.92,0c-23.59,0-43.37,32.44-48.7,65.91A98,98,0,0,1,116.36,79c19.87,16.9,23.41,35.79,16.33,51.81h0a6.62,6.62,0,0,0,1.64,7.88l18.38,15.8-21.5-14.26a6.62,6.62,0,0,1-2.6-7.61h0c5-16.78-.83-35.08-22.64-49.38C78.6,65.29,36.51,60.44,23.64,80.07c-9.92,15.13.43,40.37,18.22,59.37a263.59,263.59,0,0,1,43.9,1.64c23.8,3,33.68,6.85,41.12,15.46l.55.63c1.48,1.71,2.84,2.22,5.7,2.57l5.92.74s2.67.31,6.45,1.07c-4.05-.31-6.91-.29-6.91-.29h-6c-2.88,0-4.3-.33-6-1.85l-.62-.56c-8.45-7.62-18.74-10.24-42.73-10.24-30.82,0-69.45,6.64-77.68,15.88H182.89A39.88,39.88,0,0,1,177,159.3h0a6.62,6.62,0,0,0-7.87-1.64L162.46,161l-1.9-1.26,7.57-5a6.62,6.62,0,0,1,8,.65h0c13.38,11.3,32.5,13.23,54.31-1.07C257.84,136.37,279.06,99.7,266.2,80.07Z"/><path class="cls-2" d="M127.41,157.17l-.54-.63C126.44,156,127.41,157.17,127.41,157.17Z"/></svg>