<svg width="2382" height="454" viewBox="0 0 2382 454" fill="none" xmlns="http://www.w3.org/2000/svg">
<path d="M112.128 453.395C100.313 453.395 91.8503 450.84 86.741 445.731C81.6317 440.302 79.077 430.243 79.077 415.554C79.077 405.655 80.035 393.041 81.951 377.713C84.1863 362.066 87.699 340.67 92.489 313.527C100.792 263.392 107.338 219.962 112.128 183.239C115.002 160.247 116.439 141.087 116.439 125.759C116.439 111.389 111.17 104.204 100.632 104.204C92.3293 104.204 82.2703 108.515 70.455 117.137C58.959 125.44 46.1857 138.852 32.135 157.373C27.6643 163.44 22.7147 166.474 17.286 166.474C12.8153 166.474 8.82366 164.398 5.311 160.247C2.11766 155.776 0.520996 150.827 0.520996 145.398C0.520996 140.289 1.479 135.179 3.395 130.07C5.63033 124.641 9.143 118.574 13.933 111.868C29.261 90.4727 46.3453 74.027 65.186 62.531C84.0267 50.7157 102.867 44.808 121.708 44.808C139.271 44.808 152.683 50.3963 161.944 61.573C171.524 72.7497 176.314 89.0357 176.314 110.431C176.314 119.053 175.516 129.272 173.919 141.087C172.322 152.583 170.885 162.003 169.608 169.348C168.331 176.693 167.373 181.802 166.734 184.676C184.936 132.625 205.373 96.3803 228.046 75.943C250.719 55.1863 275.627 44.808 302.77 44.808C323.527 44.808 339.813 52.1527 351.628 66.842C363.763 81.5313 369.83 102.288 369.83 129.112C369.83 139.65 368.393 152.743 365.519 168.39C381.486 124.322 400.167 92.708 421.562 73.548C442.957 54.388 467.546 44.808 495.328 44.808C517.681 44.808 534.766 51.993 546.581 66.363C558.716 80.733 564.783 100.851 564.783 126.717C564.783 140.768 562.707 157.852 558.556 177.97L529.337 314.964C526.144 330.931 524.547 344.662 524.547 356.158C524.547 369.57 527.581 379.629 533.648 386.335C540.035 393.041 548.816 396.394 559.993 396.394C570.531 396.394 580.75 392.881 590.649 385.856C600.868 378.831 612.843 367.175 626.574 350.889C630.406 346.418 634.717 344.183 639.507 344.183C643.658 344.183 646.852 346.099 649.087 349.931C651.642 353.763 652.919 359.032 652.919 365.738C652.919 378.192 649.885 388.091 643.818 395.436C627.213 415.554 610.767 430.243 594.481 439.504C578.195 448.765 561.111 453.395 543.228 453.395C516.085 453.395 494.849 445.412 479.521 429.445C464.193 413.159 456.529 391.444 456.529 364.301C456.529 345.46 460.361 318.157 468.025 282.392L487.185 194.735C487.824 191.861 488.941 186.752 490.538 179.407C492.135 172.062 493.412 165.197 494.37 158.81C495.328 152.104 495.807 145.558 495.807 139.171C495.807 127.994 493.572 119.692 489.101 114.263C484.95 108.515 478.882 105.641 470.899 105.641C455.89 105.641 440.083 115.381 423.478 134.86C407.192 154.02 391.545 185.953 376.536 230.66C361.847 275.367 349.872 333.485 340.611 405.016C338.376 424.176 334.384 437.109 328.636 443.815C323.207 450.202 314.266 453.395 301.812 453.395C290.955 453.395 282.971 450.84 277.862 445.731C273.072 440.622 270.677 431.042 270.677 416.991C270.677 403.898 272.433 386.814 275.946 365.738C279.459 344.343 283.929 319.275 289.358 290.535C304.047 213.256 311.392 163.44 311.392 141.087C311.392 128.952 308.997 120.011 304.207 114.263C299.736 108.515 292.871 105.641 283.61 105.641C267.963 105.641 251.836 114.582 235.231 132.465C218.626 150.028 202.34 181.483 186.373 226.828C170.726 271.854 157.633 332.847 147.095 409.806C144.86 426.092 141.507 437.428 137.036 443.815C132.885 450.202 124.582 453.395 112.128 453.395Z" fill="url(#paint0_linear_2448_1404)"/>
<path d="M673.239 453.395C653.44 453.395 637.633 446.21 625.818 431.84C614.003 417.47 608.095 398.629 608.095 375.318C608.095 349.771 614.003 325.662 625.818 302.989C637.633 279.997 653.281 261.635 672.76 247.904C692.559 233.853 713.475 226.828 735.509 226.828C742.534 226.828 747.165 228.265 749.4 231.139C751.955 233.694 754.03 238.484 755.627 245.509C762.333 244.232 769.358 243.593 776.703 243.593C792.35 243.593 800.174 249.181 800.174 260.358C800.174 267.064 797.779 283.031 792.989 308.258C785.644 344.981 781.972 370.528 781.972 384.898C781.972 389.688 783.09 393.52 785.325 396.394C787.88 399.268 791.073 400.705 794.905 400.705C800.972 400.705 808.317 396.873 816.939 389.209C825.561 381.226 837.217 368.452 851.906 350.889C855.738 346.418 860.049 344.183 864.839 344.183C868.99 344.183 872.184 346.099 874.419 349.931C876.974 353.763 878.251 359.032 878.251 365.738C878.251 378.511 875.217 388.411 869.15 395.436C856.057 411.722 842.166 425.453 827.477 436.63C812.788 447.807 798.577 453.395 784.846 453.395C774.308 453.395 764.568 449.882 755.627 442.857C747.005 435.512 740.459 425.613 735.988 413.159C719.383 439.983 698.466 453.395 673.239 453.395ZM690.483 405.016C697.508 405.016 704.214 400.865 710.601 392.562C716.988 384.259 721.618 373.242 724.492 359.511L742.215 271.375C728.803 271.694 716.349 276.804 704.853 286.703C693.676 296.283 684.735 309.056 678.029 325.023C671.323 340.99 667.97 357.914 667.97 375.797C667.97 385.696 669.886 393.041 673.718 397.831C677.869 402.621 683.458 405.016 690.483 405.016Z" fill="url(#paint1_linear_2448_1404)"/>
<path d="M1042.9 401.184C1055.99 403.739 1062.54 410.924 1062.54 422.739C1062.54 430.722 1058.86 437.907 1051.52 444.294C1044.49 450.361 1034.27 453.395 1020.86 453.395C997.87 453.395 979.029 446.37 964.34 432.319C949.97 417.949 942.785 399.268 942.785 376.276C942.785 363.822 949.172 354.881 961.945 349.452C975.996 343.385 986.055 336.998 992.122 330.292C998.189 323.267 1001.22 314.804 1001.22 304.905C1001.22 299.157 999.946 294.846 997.391 291.972C995.156 289.098 992.282 287.661 988.769 287.661C980.147 287.661 970.567 293.888 960.029 306.342C949.81 318.796 940.23 334.922 931.289 354.721C922.348 374.2 915.322 394.318 910.213 415.075C906.7 430.084 902.549 440.302 897.759 445.731C893.288 450.84 886.103 453.395 876.204 453.395C866.305 453.395 858.96 449.882 854.17 442.857C849.699 435.512 846.666 424.336 845.069 409.327C843.472 394.318 842.674 372.284 842.674 343.225C842.674 294.048 847.624 242.795 857.523 189.466C867.742 136.137 882.591 91.4307 902.07 55.346C921.869 18.942 945.499 0.73999 972.962 0.73999C987.651 0.73999 999.467 7.12666 1008.41 19.9C1017.67 32.354 1022.3 48.64 1022.3 68.758C1022.3 101.011 1012.88 134.541 994.038 169.348C975.197 203.836 944.541 244.232 902.07 290.535C901.112 307.14 900.633 324.225 900.633 341.788C915.961 301.871 933.524 272.972 953.323 255.089C973.122 236.887 991.643 227.786 1008.89 227.786C1024.85 227.786 1037.63 233.215 1047.21 244.072C1057.11 254.929 1062.06 268.341 1062.06 284.308C1062.06 301.871 1057.59 317.998 1048.64 332.687C1039.7 347.376 1024.37 360.469 1002.66 371.965C1004.58 381.545 1008.41 388.251 1014.16 392.083C1020.22 395.596 1029.8 398.629 1042.9 401.184ZM962.903 48.161C957.155 48.161 950.768 56.4637 943.743 73.069C936.718 89.355 929.852 111.549 923.146 139.65C916.759 167.432 911.49 197.769 907.339 230.66C927.138 207.349 943.424 181.962 956.197 154.499C969.29 127.036 975.836 102.128 975.836 79.775C975.836 69.5563 974.718 61.7327 972.483 56.304C970.248 50.8753 967.054 48.161 962.903 48.161Z" fill="url(#paint2_linear_2448_1404)"/>
<path d="M1430.78 453.395C1418.97 453.395 1410.5 450.84 1405.39 445.731C1400.28 440.302 1397.73 430.243 1397.73 415.554C1397.73 405.655 1398.69 393.041 1400.6 377.713C1402.84 362.066 1406.35 340.67 1411.14 313.527C1419.44 263.392 1425.99 219.962 1430.78 183.239C1433.66 160.247 1435.09 141.087 1435.09 125.759C1435.09 111.389 1429.82 104.204 1419.29 104.204C1410.98 104.204 1400.92 108.515 1389.11 117.137C1377.61 125.44 1364.84 138.852 1350.79 157.373C1346.32 163.44 1341.37 166.474 1335.94 166.474C1331.47 166.474 1327.48 164.398 1323.96 160.247C1320.77 155.776 1319.17 150.827 1319.17 145.398C1319.17 140.289 1320.13 135.179 1322.05 130.07C1324.28 124.641 1327.8 118.574 1332.59 111.868C1347.91 90.4727 1365 74.027 1383.84 62.531C1402.68 50.7157 1421.52 44.808 1440.36 44.808C1457.92 44.808 1471.34 50.3963 1480.6 61.573C1490.18 72.7497 1494.97 89.0357 1494.97 110.431C1494.97 119.053 1494.17 129.272 1492.57 141.087C1490.98 152.583 1489.54 162.003 1488.26 169.348C1486.98 176.693 1486.03 181.802 1485.39 184.676C1503.59 132.625 1524.03 96.3803 1546.7 75.943C1569.37 55.1863 1594.28 44.808 1621.42 44.808C1642.18 44.808 1658.47 52.1527 1670.28 66.842C1682.42 81.5313 1688.48 102.288 1688.48 129.112C1688.48 139.65 1687.05 152.743 1684.17 168.39C1700.14 124.322 1718.82 92.708 1740.22 73.548C1761.61 54.388 1786.2 44.808 1813.98 44.808C1836.33 44.808 1853.42 51.993 1865.23 66.363C1877.37 80.733 1883.44 100.851 1883.44 126.717C1883.44 140.768 1881.36 157.852 1877.21 177.97L1847.99 314.964C1844.8 330.931 1843.2 344.662 1843.2 356.158C1843.2 369.57 1846.23 379.629 1852.3 386.335C1858.69 393.041 1867.47 396.394 1878.65 396.394C1889.18 396.394 1899.4 392.881 1909.3 385.856C1919.52 378.831 1931.5 367.175 1945.23 350.889C1949.06 346.418 1953.37 344.183 1958.16 344.183C1962.31 344.183 1965.51 346.099 1967.74 349.931C1970.3 353.763 1971.57 359.032 1971.57 365.738C1971.57 378.192 1968.54 388.091 1962.47 395.436C1945.87 415.554 1929.42 430.243 1913.13 439.504C1896.85 448.765 1879.76 453.395 1861.88 453.395C1834.74 453.395 1813.5 445.412 1798.17 429.445C1782.85 413.159 1775.18 391.444 1775.18 364.301C1775.18 345.46 1779.01 318.157 1786.68 282.392L1805.84 194.735C1806.48 191.861 1807.59 186.752 1809.19 179.407C1810.79 172.062 1812.07 165.197 1813.02 158.81C1813.98 152.104 1814.46 145.558 1814.46 139.171C1814.46 127.994 1812.23 119.692 1807.75 114.263C1803.6 108.515 1797.54 105.641 1789.55 105.641C1774.54 105.641 1758.74 115.381 1742.13 134.86C1725.85 154.02 1710.2 185.953 1695.19 230.66C1680.5 275.367 1668.52 333.485 1659.26 405.016C1657.03 424.176 1653.04 437.109 1647.29 443.815C1641.86 450.202 1632.92 453.395 1620.47 453.395C1609.61 453.395 1601.62 450.84 1596.52 445.731C1591.73 440.622 1589.33 431.042 1589.33 416.991C1589.33 403.898 1591.09 386.814 1594.6 365.738C1598.11 344.343 1602.58 319.275 1608.01 290.535C1622.7 213.256 1630.05 163.44 1630.05 141.087C1630.05 128.952 1627.65 120.011 1622.86 114.263C1618.39 108.515 1611.52 105.641 1602.26 105.641C1586.62 105.641 1570.49 114.582 1553.88 132.465C1537.28 150.028 1520.99 181.483 1505.03 226.828C1489.38 271.854 1476.29 332.847 1465.75 409.806C1463.51 426.092 1460.16 437.428 1455.69 443.815C1451.54 450.202 1443.24 453.395 1430.78 453.395Z" fill="url(#paint3_linear_2448_1404)"/>
<path d="M1991.89 453.395C1972.09 453.395 1956.29 446.21 1944.47 431.84C1932.66 417.47 1926.75 398.629 1926.75 375.318C1926.75 349.771 1932.66 325.662 1944.47 302.989C1956.29 279.997 1971.93 261.635 1991.41 247.904C2011.21 233.853 2032.13 226.828 2054.16 226.828C2061.19 226.828 2065.82 228.265 2068.05 231.139C2070.61 233.694 2072.68 238.484 2074.28 245.509C2080.99 244.232 2088.01 243.593 2095.36 243.593C2111 243.593 2118.83 249.181 2118.83 260.358C2118.83 267.064 2116.43 283.031 2111.64 308.258C2104.3 344.981 2100.63 370.528 2100.63 384.898C2100.63 389.688 2101.74 393.52 2103.98 396.394C2106.53 399.268 2109.73 400.705 2113.56 400.705C2119.63 400.705 2126.97 396.873 2135.59 389.209C2144.21 381.226 2155.87 368.452 2170.56 350.889C2174.39 346.418 2178.7 344.183 2183.49 344.183C2187.64 344.183 2190.84 346.099 2193.07 349.931C2195.63 353.763 2196.9 359.032 2196.9 365.738C2196.9 378.511 2193.87 388.411 2187.8 395.436C2174.71 411.722 2160.82 425.453 2146.13 436.63C2131.44 447.807 2117.23 453.395 2103.5 453.395C2092.96 453.395 2083.22 449.882 2074.28 442.857C2065.66 435.512 2059.11 425.613 2054.64 413.159C2038.04 439.983 2017.12 453.395 1991.89 453.395ZM2009.14 405.016C2016.16 405.016 2022.87 400.865 2029.25 392.562C2035.64 384.259 2040.27 373.242 2043.15 359.511L2060.87 271.375C2047.46 271.694 2035 276.804 2023.51 286.703C2012.33 296.283 2003.39 309.056 1996.68 325.023C1989.98 340.99 1986.62 357.914 1986.62 375.797C1986.62 385.696 1988.54 393.041 1992.37 397.831C1996.52 402.621 2002.11 405.016 2009.14 405.016Z" fill="url(#paint4_linear_2448_1404)"/>
<path d="M2361.55 401.184C2374.64 403.739 2381.19 410.924 2381.19 422.739C2381.19 430.722 2377.52 437.907 2370.17 444.294C2363.15 450.361 2352.93 453.395 2339.52 453.395C2316.52 453.395 2297.68 446.37 2282.99 432.319C2268.62 417.949 2261.44 399.268 2261.44 376.276C2261.44 363.822 2267.82 354.881 2280.6 349.452C2294.65 343.385 2304.71 336.998 2310.78 330.292C2316.84 323.267 2319.88 314.804 2319.88 304.905C2319.88 299.157 2318.6 294.846 2316.04 291.972C2313.81 289.098 2310.94 287.661 2307.42 287.661C2298.8 287.661 2289.22 293.888 2278.68 306.342C2268.46 318.796 2258.88 334.922 2249.94 354.721C2241 374.2 2233.98 394.318 2228.87 415.075C2225.35 430.084 2221.2 440.302 2216.41 445.731C2211.94 450.84 2204.76 453.395 2194.86 453.395C2184.96 453.395 2177.61 449.882 2172.82 442.857C2168.35 435.512 2165.32 424.336 2163.72 409.327C2162.13 394.318 2161.33 372.284 2161.33 343.225C2161.33 294.048 2166.28 242.795 2176.18 189.466C2186.4 136.137 2201.24 91.4307 2220.72 55.346C2240.52 18.942 2264.15 0.73999 2291.62 0.73999C2306.3 0.73999 2318.12 7.12666 2327.06 19.9C2336.32 32.354 2340.95 48.64 2340.95 68.758C2340.95 101.011 2331.53 134.541 2312.69 169.348C2293.85 203.836 2263.19 244.232 2220.72 290.535C2219.77 307.14 2219.29 324.225 2219.29 341.788C2234.61 301.871 2252.18 272.972 2271.98 255.089C2291.77 236.887 2310.3 227.786 2327.54 227.786C2343.51 227.786 2356.28 233.215 2365.86 244.072C2375.76 254.929 2380.71 268.341 2380.71 284.308C2380.71 301.871 2376.24 317.998 2367.3 332.687C2358.36 347.376 2343.03 360.469 2321.31 371.965C2323.23 381.545 2327.06 388.251 2332.81 392.083C2338.88 395.596 2348.46 398.629 2361.55 401.184ZM2281.56 48.161C2275.81 48.161 2269.42 56.4637 2262.4 73.069C2255.37 89.355 2248.51 111.549 2241.8 139.65C2235.41 167.432 2230.14 197.769 2225.99 230.66C2245.79 207.349 2262.08 181.962 2274.85 154.499C2287.94 127.036 2294.49 102.128 2294.49 79.775C2294.49 69.5563 2293.37 61.7327 2291.14 56.304C2288.9 50.8753 2285.71 48.161 2281.56 48.161Z" fill="url(#paint5_linear_2448_1404)"/>
<defs>
<linearGradient id="paint0_linear_2448_1404" x1="1193" y1="-53.7434" x2="1193" y2="668" gradientUnits="userSpaceOnUse">
<stop stop-color="#FFACC0"/>
<stop offset="1" stop-color="#84CCDF" stop-opacity="0.2"/>
</linearGradient>
<linearGradient id="paint1_linear_2448_1404" x1="1193" y1="-53.7434" x2="1193" y2="668" gradientUnits="userSpaceOnUse">
<stop stop-color="#FFACC0"/>
<stop offset="1" stop-color="#84CCDF" stop-opacity="0.2"/>
</linearGradient>
<linearGradient id="paint2_linear_2448_1404" x1="1193" y1="-53.7434" x2="1193" y2="668" gradientUnits="userSpaceOnUse">
<stop stop-color="#FFACC0"/>
<stop offset="1" stop-color="#84CCDF" stop-opacity="0.2"/>
</linearGradient>
<linearGradient id="paint3_linear_2448_1404" x1="1193" y1="-53.7434" x2="1193" y2="668" gradientUnits="userSpaceOnUse">
<stop stop-color="#FFACC0"/>
<stop offset="1" stop-color="#84CCDF" stop-opacity="0.2"/>
</linearGradient>
<linearGradient id="paint4_linear_2448_1404" x1="1193" y1="-53.7434" x2="1193" y2="668" gradientUnits="userSpaceOnUse">
<stop stop-color="#FFACC0"/>
<stop offset="1" stop-color="#84CCDF" stop-opacity="0.2"/>
</linearGradient>
<linearGradient id="paint5_linear_2448_1404" x1="1193" y1="-53.7434" x2="1193" y2="668" gradientUnits="userSpaceOnUse">
<stop stop-color="#FFACC0"/>
<stop offset="1" stop-color="#84CCDF" stop-opacity="0.2"/>
</linearGradient>
</defs>
</svg>
