<svg xmlns="http://www.w3.org/2000/svg" viewBox="0 0 67.65 67.67"><defs><style>.cls-1{fill:#008c44;}.cls-2{fill:#d71920;}.cls-3{fill:#fff;}</style></defs><rect class="cls-1" y="45.17" width="67.65" height="22.5"/><rect class="cls-2" width="67.65" height="45.25"/><path class="cls-3" d="M43.34,24.49a1.64,1.64,0,0,0,1,.18l.12-.61L43.1,24Z"/><path class="cls-3" d="M45.29,24.77h.53l.08.34h.77l.1-1h-1.6Z"/><polygon class="cls-3" points="48.59 24.06 48.77 24.64 49.62 24.64 49.61 24.05 48.59 24.06"/><polygon class="cls-3" points="47.37 24.06 47.51 24.62 47.89 24.62 48.01 24.06 47.37 24.06"/><path class="cls-3" d="M53.22,52a1.79,1.79,0,0,1-1.91-1.54l-.14-.69c.43-.45.85-.9,1.25-1.38Zm-4.55-.25H47.55c-.07-.4-.26-1.7-.46-3.21h1.57l.44,2.72v.14l-.45.38m-1.06.16h.85c-.19.16-.4.31-.6.45a1.39,1.39,0,0,1-.25-.45M45,54.17c.21-.8.42-1.63.42-1.63a2.47,2.47,0,0,1-2.88-.66H45.7v.33A5.8,5.8,0,0,0,46,53.55c-.36.22-.73.42-1.09.62M33.94,57A23.62,23.62,0,0,1,23,54.3l.57-1.08a1.17,1.17,0,0,1-1.16-1.34h1.88a4.58,4.58,0,0,0,3.48,3.7l1.33-3a2,2,0,0,1-2.1-.7h2.4a3.17,3.17,0,0,0,1.16,3,4.07,4.07,0,0,1,1,1l1.22-3.09a1.4,1.4,0,0,1-1.07-.86H33a7.93,7.93,0,0,0,1.12,2.33c1.54,2.19,4.54,2.11,6-.66l-1.21-1.67h1.21a7.77,7.77,0,0,0,1.29,2.33,4.33,4.33,0,0,0,1.28,1A23.27,23.27,0,0,1,33.94,57m-14.7-5.07h.86l-.11.46v.08c-.26-.18-.5-.35-.74-.54m-1-.84L19,48.48h1.9l-.78,3.25H19c-.28-.22-.51-.46-.77-.69m-2.56-2.56h1.15l-.29.92c-.28-.3-.59-.6-.86-.92m-.55-.73L16,45.27h1.8a3.64,3.64,0,0,1-.15.73l-.72,2.31H15.58c-.15-.17-.28-.38-.42-.56m-1.72-2.48h.4l-.15.4c-.09-.14-.18-.27-.25-.4m-1.6-3.2H36.08c-.88.22-2,.92-2.77,3H32c.17-1.65.3-3,.3-3h-2l-.12.73c-.44-1.13-2.51-1-3.83.65a9,9,0,0,0-1,1.61H23.77v-.23a2.31,2.31,0,0,0-2.28-2.76H15l-1.06,3h-.57a24.84,24.84,0,0,1-1.48-3m-1-3.25H57.07c-.15.6-.78,2.33-1,2.93h-.58l.07.22H12.35l.07-.21h-.73a14.79,14.79,0,0,1-.89-2.91m-.4-1.75-.2-1.44H20.46l-.69,3H13l.14-.44h-2.5Zm-.32-3.3.05-1.35H32.24l-.15.36a17.48,17.48,0,0,0-.17,2.68H23.09L23.32,34c.26-1.67-1.84-1.87-2.42-.21l-.4,1.72H13.86l.27-.86h-4Zm.21-3.53a5.77,5.77,0,0,1,.16-1h46.9s.08.42.14.91.16.93.16.93h-5L53,32.26H35.41a1.77,1.77,0,0,0-3.1,0H14.81l.29-1.08H10.21a6.59,6.59,0,0,1,.08-.93M11.21,26H51.07v-.16H16.79a1.54,1.54,0,0,0,0-.39h.42c.15-.6.38-1.34.38-1.34H11.92l.61-1.41h5.26c-.12-.49.72-.5.63,0h2.15c-.2-.49.69-.55.57,0H46.63a.31.31,0,1,1,.59,0h2.26c-.12-.52.63-.52.55,0h5.21l.6,1.34H50.35s.23.73.37,1.32h.42l-.07.61h5.49L57,27.59H51.68l.28,1h.82l-.15.5H15.11L15,28.66h.82l.28-1H10.77Zm3.2-6.44h12a4.48,4.48,0,0,0,.19-1c.07-.41.42-.36.4,0l-.11,1h14V18.33c0-.35.3-.37.35,0s.17,1.14.17,1.14h12c.28.34.7,1.08.72,1.07H42.42l.16,1.08h.53l-.24.85h-18l-.22-.81h.54l.15-1.08H13.67s.46-.72.74-1.06m2.76-3.26H29.52V16c.1-.18.29-.19.38,0v.23h6.77v-.16H30.93c0-.33.08-1,.08-1,.13-.22.25-.22.37,0V16l1.7-1v-.25h.61v-.48h-.84v-.39h.85v-.55H20.85a2.48,2.48,0,0,1,.77-.43H46.24a3.14,3.14,0,0,1,.69.47H34.08v.55h.85v.4h-.85v.48h.56V15l1.67.95v-.81a.19.19,0,0,1,.35,0l.1,1.14H38v-.21c.09-.23.32-.24.4,0v.19H50.64c-.2-.22.93.87.74.79H39v.27l.37.16-.12,1.21.11.65h-11l.09-.63-.11-1.2.33-.1-.1-.33H16.4c-.19.07.9-1,.76-.81M57.72,33.74v.87h-4l.24.86H47.31l-.41-1.75c-.58-1.71-2.7-1.34-2.42.21l.23,1.54H35.82a18.5,18.5,0,0,0-.18-2.65,2.26,2.26,0,0,0-.15-.39H57.72Zm-11,1.89.51,2.52H45.31l-.38-2.52Zm-1.93-1L44.65,34c-.17-1.09,1.24-1.24,1.65-.14l.18.8Zm-8.94,1h8.92l.47,3H35.82v-3m-.09,0v2.49H32V35.64Zm-1.91-3.2h.12c.43,0,1.61.32,1.69,2.25h-3.5c.09-1.9,1.25-2.22,1.69-2.25m-10.75,3.2h8.85v3h-9.3Zm-1.73-1,.16-.76c.52-1.12,1.84-1,1.65.13l-.09.63Zm-.23,1h1.78l-.37,2.53H20.59ZM57.41,37l-.24,1.18H54.71l.16.5H48.06l-.71-3H57.59Zm-3,8.1H53.8l-.83-3H51l.66,3H50.18l-.62-3H47.37l-.28,2h.85l.16,1H46.6l-.41-3H44.45v.7a1.9,1.9,0,0,0-1.19-.71H55.94a26.38,26.38,0,0,1-1.52,3m-.56.18h.45c-.1.16-.21.31-.31.48Zm-7.24,0h1.51l.48,3H47l-.42-3m-4.92,3a15.09,15.09,0,0,1,.28-3h2.75l.43,3Zm.47,3a8.14,8.14,0,0,1-.47-2.88h3.47l.47,3.24H42.38Zm-10.6-.47c0-.36.1-1.25.2-2.32h.91A9.65,9.65,0,0,0,33,51.73H31.61a2.62,2.62,0,0,1-.08-.93m-5.24-1.68c0-.21,0-.43.07-.64h3.3l-.25,3.13v.12H26.88a4.62,4.62,0,0,1-.59-2.61m-2-.64a16.12,16.12,0,0,0-.17,1.82,5.92,5.92,0,0,0,.15,1.43H22.44l.65-3.25Zm8.35-.17h-.91c.09-1,.2-2,.3-3h1.23a12.63,12.63,0,0,0-.62,3m7.43-3a2.13,2.13,0,0,1-.1.4,16,16,0,0,0-.3,2.64h-5a10.78,10.78,0,0,1,.56-3Zm4.61-.18H42c.44-2.06,2.35-1.15,2.68,0m-6.72-3h4.61a4.06,4.06,0,0,0-2.46,3H35.34c1-2.29,3.29-1.49,3.22-.07l1.25-1.62A2.64,2.64,0,0,0,38,42.08m-8,3.19-.25,3H26.39a8.36,8.36,0,0,1,1.06-3Zm0-.18H27.57a2.73,2.73,0,0,1,.26-.43c.77-1,2.22-.89,2.11.16Zm-6.19.18h1.51a11.17,11.17,0,0,0-.92,3H23.2ZM20,45.09l.34-1.16c.67.07,1.33.33,1.33,1.16Zm1.67.18a2.25,2.25,0,0,1-.07.4L21,48.31H19.1l.9-3Zm-3.9-.18H16L16.42,44c.81.12,1.37.3,1.37,1.12m20.7,6.79a1.89,1.89,0,0,1-3.23,0h3.23Zm.18-.36-.1.21H35.18a7.84,7.84,0,0,1-.48-3.25h5a10,10,0,0,0,.42,3.25h-1.3Zm13.46-3.21H50.87l-.64-3h1.5l.62,2.78Zm-1.23.17H52c-.29.33-.57.67-.88,1Zm7-15.27a24,24,0,0,0-48.07.06,23.44,23.44,0,0,0,3.75,12.62L10.2,55.45h2.35L15.08,48c.46.57.94,1.11,1.43,1.64l-1.8,5.81H17l1.24-4.18A21.14,21.14,0,0,0,20,52.6a2.5,2.5,0,0,0,1.14,2.5l1.09.73L23,54.45a23.67,23.67,0,0,0,11,2.7h0a23.92,23.92,0,0,0,9-1.8,3.92,3.92,0,0,0,1.56.32s.17-.57.35-1.23c.43-.22.84-.46,1.25-.71a3.11,3.11,0,0,0,2.78,2l.21-3a1.74,1.74,0,0,1-1.1-.27c.4-.28.8-.57,1.18-.89.88,3.23,3.45,4,7.52,3.84L54.12,46A23.66,23.66,0,0,0,58,33.2"/><path class="cls-3" d="M23.44,24.76a1.75,1.75,0,0,0,.91-.13l.3-.55h-1.3Z"/><polygon class="cls-3" points="21.05 24.1 21.05 25.13 21.89 25.12 22.01 24.78 22.54 24.79 22.75 24.09 21.05 24.1"/><polygon class="cls-3" points="18.16 24.1 18.15 24.65 19.09 24.65 19.39 24.1 18.16 24.1"/><polygon class="cls-3" points="19.87 24.1 19.91 24.66 20.18 24.66 20.44 24.1 19.87 24.1"/></svg>