<svg xmlns="http://www.w3.org/2000/svg" viewBox="0 0 422.3 422.29"><defs><style>.cls-1{fill:#fff;}.cls-2{fill:#006f5b;}.cls-3{fill:#363639;}.cls-4{fill:#fd0;}</style></defs><path class="cls-1" d="M417.33,211.15c0,113.86-92.3,206.18-206.18,206.18S5,325,5,211.15,97.28,5,211.15,5,417.33,97.27,417.33,211.15Z"/><path class="cls-2" d="M211.14,0C94.54,0,0,94.53,0,211.14S94.54,422.29,211.14,422.29,422.3,327.76,422.3,211.14,327.76,0,211.14,0Zm0,413.89c-112,0-202.73-90.76-202.73-202.73S99.2,8.42,211.16,8.42,413.9,99.19,413.9,211.16,323.14,413.89,211.16,413.89Z"/><path class="cls-2" d="M149.68,295.56l8.42-.08,3-.31,3-.3,3.41-.45,3.79-.85,3.19-.75,3.64-1.15,4.24-1.44,3.19-1.21,3.34-1.51,3-1.52,3.34-2.05,2.8-1.59,2.43-1.74,2.57-1.66,2-1.68,2.13-1.66,2.28-1.89,1.58-1.53,1.21,1,2.66,2.2L218.1,278l3.2,2.28,3.25,2.12,2.81,1.75,3.11,1.82,3.95,1.89,3.27,1.52,4.4,1.59,4.54,1.44,3.95,1.06,3.18.69,2.89.44,2.58.39,3.27.3,3.09.23h76.87a156.06,156.06,0,1,0-262.57,0Z"/><polygon class="cls-2" points="211.04 284.03 211.04 284.03 213.4 285.76 220.07 290.47 225.01 293.5 230.85 296.3 237.06 298.82 244.12 301.17 250.04 302.38 256.71 303.36 265.44 303.9 336.83 303.9 334.71 306.77 332.49 309.67 330.15 312.47 92.41 312.47 90.27 309.89 87.62 306.63 85.57 303.9 156.95 303.9 165.61 303.36 172.28 302.38 178.28 301.17 185.34 298.82 191.55 296.3 197.24 293.5 202.23 290.47 208.93 285.76 211.04 284.03"/><polygon class="cls-2" points="96.04 316.56 96.04 316.56 211.28 316.56 326.59 316.56 318.39 324.99 104.46 324.99 101.19 321.87 98.1 318.84 96.04 316.56"/><polygon class="cls-2" points="111.67 331.36 111.67 331.36 310.95 331.36 302.46 337.72 119.86 337.72 117.74 336.14 115.61 334.54 111.67 331.36"/><polygon class="cls-2" points="167.35 360.87 167.35 360.87 189.5 360.87 211.5 360.87 255.04 360.87 252.47 361.7 249.06 362.55 246.17 363.22 239.96 364.51 235.17 365.35 231.16 365.87 226.97 366.4 221.82 366.86 218.17 367.08 214.76 367.17 211.12 367.25 207.78 367.17 203.93 367.08 200.51 366.86 197.53 366.63 194.35 366.33 190.79 365.87 188.21 365.5 184.72 364.96 181.75 364.44 176.83 363.36 173.65 362.69 171.06 362.01 167.35 360.87"/><polygon class="cls-2" points="132.91 346.15 132.91 346.15 289.8 346.15 281.82 350.33 211.19 350.33 140.66 350.33 136.78 348.28 134.51 347.06 132.91 346.15"/><polygon class="cls-3" points="210.52 210.66 210.52 210.66 211.42 210.66 211.42 211.5 210.52 211.5 210.52 210.66"/><polygon class="cls-3" points="307.24 211.2 307.24 211.2 304.97 211.2 307.24 211.2"/><polygon class="cls-3" points="115.99 211.2 115.99 211.2 113.71 211.2 115.99 211.2"/><polygon class="cls-4" points="290.02 99.14 290.02 99.14 286 112.2 297.38 120.16 283.42 120.38 279.55 133.59 275.08 120.55 261.34 120.77 272.19 112.5 267.72 99.38 279.09 107.35 290.02 99.14"/><polygon class="cls-4" points="335.45 153.32 335.45 153.32 325.52 162.65 331.36 175.24 319.23 168.4 309.21 177.9 311.86 164.39 299.88 157.71 313.38 156.05 316.11 142.38 321.96 154.98 335.45 153.32"/><polygon class="cls-4" points="143.15 107.35 143.15 107.35 154.53 99.38 150.05 112.5 160.97 120.77 147.18 120.55 142.77 133.59 138.82 120.38 124.87 120.16 136.25 112.2 132.3 99.14 143.15 107.35"/><polygon class="cls-4" points="99.84 154.98 99.84 154.98 105.67 142.38 108.4 156.05 121.92 157.71 109.93 164.39 112.58 177.9 102.57 168.4 90.36 175.24 96.27 162.65 86.33 153.32 99.84 154.98"/><polygon class="cls-4" points="217.12 84.36 217.12 84.36 237.14 84.36 220.91 96.19 226.97 114.93 210.89 103.32 194.9 115 201.1 96.19 184.87 84.36 204.83 84.36 210.97 65.61 217.12 84.36"/><polygon class="cls-2" points="127.75 355.41 127.75 355.41 116.82 378.85 119.7 380.14 129.11 359.97 128.96 384.47 131.54 385.67 149.6 369.51 140.2 389.7 143.99 391.51 154.91 368.08 149.52 365.57 132.84 380.36 132.84 357.75 127.75 355.41"/><polygon class="cls-2" points="221.3 395.15 221.3 395.15 220.3 397.21 219.7 398.04 219.08 398.72 218.49 399.34 217.73 399.86 216.97 400.24 216.13 400.63 215.29 400.84 214.46 401 213.62 401.16 212.72 401.16 211.89 401.16 210.97 401.08 210.06 401 209.15 400.84 205.88 399.48 204.52 398.27 203.39 396.9 202.55 395.39 201.95 393.65 201.56 391.82 201.48 390 201.72 388.18 202.09 386.44 202.85 384.76 203.93 383.33 205.28 382.04 206.95 381.04 209.01 380.36 211.35 380.06 212.18 380.06 212.72 380.14 213.33 380.21 214 380.29 214.76 380.44 215.52 380.66 216.27 380.9 217.04 381.2 217.81 381.65 218.56 382.12 219.15 382.64 219.84 383.33 220.38 384.08 220.84 384.99 221.3 385.99 225.54 385.37 225.01 383.55 224.55 382.72 223.95 381.95 223.26 381.2 222.5 380.51 221.59 379.91 220.68 379.39 219.7 378.85 218.63 378.47 217.49 378.08 216.35 377.79 215.06 377.56 213.86 377.4 212.56 377.33 211.35 377.33 207.63 377.79 204.6 378.78 203.16 379.39 200.8 380.9 199.82 381.8 198.22 383.78 197.09 385.99 196.63 387.13 196.18 389.54 196.18 390.75 196.41 393.11 197.09 395.47 197.61 396.6 198.98 398.72 199.82 399.71 201.88 401.37 204.3 402.75 205.66 403.27 208.77 403.96 210.44 404.11 211.96 404.11 212.94 404.04 213.93 403.96 214.99 403.89 216.05 403.65 217.19 403.43 218.41 403.05 219.54 402.59 220.68 401.98 221.74 401.31 222.72 400.47 223.71 399.48 224.62 398.35 225.31 396.97 225.99 395.47 221.3 395.15"/><polygon class="cls-2" points="290.56 357.53 290.56 357.53 298.44 373.61 298.74 374.91 298.66 376.05 298.52 376.73 298.28 377.33 297.52 378.54 296.54 379.69 295.25 380.75 293.81 381.72 292.29 382.56 290.7 383.25 289.04 383.78 287.43 384.08 285.85 384.16 284.48 383.93 283.19 383.47 282.13 382.72 281.37 381.58 273.63 365.8 269.46 367.84 277.12 383.63 277.95 385.15 278.79 386.13 279.7 386.81 280.61 387.27 281.82 387.57 283.56 387.8 285.85 387.72 288.35 387.27 290.77 386.51 293.21 385.45 295.48 384.16 297.61 382.72 299.5 381.12 301.02 379.39 302.16 377.64 302.84 375.82 302.91 374.37 302.84 373.24 302.46 372.25 294.42 355.71 290.56 357.53"/><path class="cls-2" d="M250,373l-5,1.21-6,27.84,3.79-.82,1.67-8.06,13.51-3.1,5.38,6.37,4.63-1.06Zm-4.84,17.29,2.72-12.82L256,387.8Z"/><path class="cls-2" d="M178.65,374.3l-5.08-1.14L156,395.62l3.79.9,5-6.45,13.51,3.1,2.12,8.06,4.62,1.13Zm-12,13.42,8.13-10.32,2.81,12.82Z"/><polygon class="cls-2" points="27.61 155.21 27.61 155.21 28.29 155.44 28.98 155.67 29.74 155.81 30.42 156.05 31.11 156.2 31.79 156.27 32.47 156.43 33.15 156.5 33.76 156.57 34.43 156.64 35.13 156.64 35.81 156.64 36.41 156.64 37.09 156.64 37.78 156.64 38.39 156.64 39.06 156.57 39.67 156.5 40.29 156.35 40.97 156.27 41.57 156.11 42.18 155.97 42.86 155.67 43.55 155.36 44.15 155.05 44.84 154.75 45.44 154.45 46.12 154.08 46.73 153.71 47.34 153.39 47.95 152.94 48.55 152.55 49.16 152.17 49.77 151.72 50.37 151.26 50.98 150.81 51.51 150.35 52.12 149.82 52.72 149.36 53.26 148.83 53.79 148.3 54.4 147.78 54.93 147.24 55.45 146.64 55.53 146.56 55.6 146.56 55.6 146.56 55.68 146.56 55.76 146.56 55.76 146.64 55.83 146.71 55.91 146.87 55.98 147.24 56.06 147.7 56.13 148.16 56.29 148.54 56.44 148.99 56.52 149.44 56.66 149.82 56.82 150.28 56.89 150.43 56.89 150.51 56.89 150.66 56.89 150.74 56.82 150.89 56.75 150.96 56.66 151.04 56.59 151.11 55.98 151.65 55.45 152.17 54.85 152.63 54.32 153.09 53.71 153.55 53.1 153.99 52.5 154.45 51.89 154.9 51.2 155.29 50.6 155.74 49.91 156.11 49.31 156.5 48.63 156.96 47.95 157.25 47.26 157.63 46.58 158.02 45.89 158.32 45.21 158.62 44.54 158.92 43.92 159.08 43.32 159.31 42.71 159.46 42.03 159.68 41.42 159.85 40.82 159.98 40.12 160.14 39.52 160.29 38.92 160.37 39.37 160.75 39.9 161.12 40.36 161.5 40.89 161.96 41.35 162.42 41.8 162.87 42.18 163.32 42.71 163.86 43.09 164.31 43.55 164.84 43.92 165.46 44.38 166.04 44.75 166.59 45.13 167.27 45.51 168.03 45.82 168.86 46.12 169.62 46.43 170.38 46.73 171.14 46.97 171.9 47.19 172.58 47.42 173.34 47.56 173.96 47.79 174.63 47.95 175.32 48.1 175.99 48.25 176.61 48.32 177.21 48.4 177.74 48.48 178.35 48.32 178.88 47.86 179.18 47.49 179.49 47.1 179.8 46.8 180.16 46.43 180.48 46.12 180.77 45.89 181.14 45.59 181.53 45.51 181.53 45.44 181.53 45.37 181.53 45.29 181.46 45.29 181.46 45.21 181.38 45.21 181.31 45.13 181.22 45.13 180.55 45.07 179.8 44.99 179.1 44.91 178.35 44.75 177.66 44.68 176.9 44.54 176.22 44.3 175.46 44.15 174.79 43.92 174.1 43.7 173.34 43.4 172.65 43.16 171.9 42.86 171.21 42.56 170.46 42.18 169.77 41.8 169.09 41.42 168.34 41.04 167.66 40.58 166.89 40.29 166.59 39.98 166.2 39.6 165.83 39.22 165.53 38.84 165.15 38.39 164.84 38 164.54 37.54 164.16 37.09 163.86 36.57 163.55 36.11 163.18 35.57 162.87 35.05 162.57 34.43 162.26 33.91 161.96 33.3 161.65 32.7 161.36 32.08 161.06 31.48 160.75 30.8 160.44 30.12 160.21 29.44 159.92 28.75 159.61 27.98 159.38 27.24 159.08 26.47 158.85 25.64 158.55 24.88 158.32 26.4 154.83 26.63 154.37 26.85 154.08 27.01 153.92 27.16 153.83 27.31 153.99 27.47 154.23 27.54 154.69 27.61 155.21"/><polygon class="cls-2" points="324.91 59.24 324.91 59.24 324.54 59.62 324.22 59.92 323.93 60.23 323.55 60.54 323.32 60.77 323.02 60.99 322.72 61.21 322.49 61.45 324.3 63.03 328.93 57.66 331.58 60.54 331.75 60.84 331.83 60.99 331.83 61.14 331.75 61.21 331.58 61.21 331.28 61.21 330.98 61.14 330.53 60.99 326.88 65.25 329.92 67.89 328.33 69.79 325.23 67.13 321.19 71.75 324.38 72.97 322.56 74.8 319.45 73.81 313.08 81.23 310.42 78.97 315.88 72.68 311.26 71.15 310.81 71.3 310.51 71.3 310.26 71.3 309.97 71.3 309.89 71.15 309.75 71.01 309.75 70.78 309.75 70.47 310.42 67.81 317.71 70.61 322.63 64.86 320.6 63.12 320.14 63.34 319.61 63.65 319.07 63.95 318.53 64.18 318.01 64.47 317.4 64.78 316.8 65 316.19 65.31 314.07 62.44 314.66 62.13 315.28 61.83 315.88 61.52 316.43 61.21 317.02 60.91 317.55 60.54 318.08 60.16 318.61 59.85 319.15 59.47 319.69 59.09 320.22 58.72 320.67 58.33 321.19 57.95 321.65 57.5 322.11 57.12 322.63 56.66 323.09 56.29 323.48 55.83 325.68 58.33 325.9 58.64 326.05 58.94 326.05 59.09 325.98 59.24 325.9 59.31 325.68 59.39 325.37 59.39 324.91 59.24"/><polygon class="cls-2" points="336.98 78.37 336.98 78.37 343.28 83.76 341.68 85.65 326.43 72.45 328.1 70.54 334.47 76.15 336.83 73.42 331.14 68.49 332.65 66.83 338.26 71.69 341.44 68.12 343.66 70.61 344.02 71.01 344.18 71.3 344.18 71.54 344.18 71.69 343.95 71.75 343.72 71.84 343.34 71.75 342.82 71.69 340.85 73.88 346.6 78.88 345.1 80.64 339.32 75.63 336.98 78.37"/><polygon class="cls-2" points="325.83 85.19 325.83 85.19 322.94 84.66 322.94 83.89 322.87 83.14 322.87 82.38 322.8 81.69 322.72 81.02 322.63 80.33 322.49 79.73 322.41 79.12 325.23 79.57 325.37 80.42 325.44 81.18 325.52 81.85 325.6 82.61 325.68 83.22 325.74 83.98 325.74 84.57 325.83 85.19"/><polygon class="cls-2" points="337.44 82.91 337.44 82.91 337.65 83.22 337.81 83.52 337.89 83.76 337.81 83.89 337.65 83.98 337.44 83.98 337.13 83.98 336.67 83.83 336 84.57 339.41 87.54 337.89 89.29 334.47 86.32 329.46 92.17 329.09 92.47 328.77 92.7 328.4 92.85 327.95 92.92 327.49 92.92 327.03 92.85 326.59 92.63 326.05 92.4 322.8 89.51 322.72 89.44 322.63 89.36 322.56 89.29 322.56 89.29 322.49 89.21 322.49 89.14 322.49 89.05 322.49 89.05 322.49 88.83 322.56 88.6 322.56 88.37 322.63 88.07 322.63 87.7 322.72 87.31 322.8 86.86 322.87 86.4 322.87 86.4 322.87 86.32 322.87 86.32 322.94 86.26 323.02 86.26 323.02 86.26 323.09 86.18 323.16 86.18 326.43 89.14 326.66 89.29 326.81 89.44 327.03 89.44 327.19 89.44 327.33 89.36 327.49 89.29 327.64 89.14 327.8 88.9 331.9 84.2 323.32 76.76 324.84 74.94 333.41 82.38 335.16 80.42 337.44 82.91"/><polygon class="cls-2" points="392.35 151.04 392.35 151.04 391.74 150.58 391.06 150.12 390.38 149.68 389.77 149.22 389.08 148.76 388.49 148.3 387.87 147.85 387.27 147.4 386.66 146.87 386.06 146.41 385.38 145.88 384.77 145.35 384.24 144.89 383.63 144.36 384.39 141.18 385.07 141.7 385.68 142.24 386.36 142.76 386.97 143.22 387.57 143.76 388.18 144.22 388.87 144.67 389.47 145.12 390.08 145.57 390.68 145.96 391.3 146.41 391.9 146.79 392.5 147.17 393.19 147.56 393.72 147.93 394.33 148.3 393.64 151.72 393.49 152.02 393.35 152.17 393.19 152.25 393.11 152.17 392.96 152.02 392.74 151.88 392.58 151.49 392.35 151.04"/><polygon class="cls-2" points="394.94 156.8 394.94 156.8 399.49 172.27 396.91 173.04 392.35 157.56 394.94 156.8"/><polygon class="cls-2" points="375.43 174.63 375.43 174.63 374.75 174.79 374.23 174.79 373.62 174.63 373.17 174.47 372.7 174.17 372.33 173.72 372.02 173.19 371.73 172.58 370.36 167.66 370.36 167.58 370.36 167.5 370.36 167.34 370.36 167.27 370.36 167.19 370.36 167.19 370.44 167.12 370.44 167.05 370.73 166.82 370.97 166.59 371.27 166.37 371.49 166.04 371.73 165.83 371.95 165.53 372.18 165.23 372.4 164.92 372.49 164.92 372.49 164.92 372.56 164.92 372.63 164.92 372.63 165 372.7 165.07 372.77 165.15 372.77 165.23 374.07 169.77 374.15 170.07 374.38 170.31 374.53 170.38 374.67 170.53 374.91 170.61 375.21 170.68 375.43 170.61 375.74 170.53 387.21 167.12 384.47 157.71 387.05 156.96 392.58 175.99 390.08 176.76 388.34 170.84 375.43 174.63"/><polygon class="cls-2" points="366.49 153.55 366.49 153.55 378.93 149.82 378.39 149.51 377.87 149.22 377.41 148.83 376.96 148.46 376.5 148.09 376.05 147.7 375.58 147.32 375.13 146.87 375.13 146.79 375.05 146.79 375.05 146.71 375.05 146.64 375.05 146.56 375.05 146.49 375.05 146.41 375.05 146.25 375.21 145.96 375.36 145.73 375.51 145.42 375.67 145.12 375.74 144.82 375.89 144.52 375.97 144.22 376.13 143.91 376.13 143.91 376.2 143.83 376.2 143.76 376.28 143.76 376.28 143.76 376.35 143.76 376.35 143.83 376.42 143.83 376.96 144.29 377.48 144.75 378.02 145.2 378.62 145.57 379.23 146.03 379.84 146.41 380.45 146.79 381.05 147.17 381.73 147.56 382.33 147.93 383.02 148.3 383.71 148.68 384.39 148.99 385.14 149.29 385.83 149.68 386.59 149.97 387.35 150.28 388.11 150.51 387.66 153.55 387.57 153.99 387.5 154.3 387.35 154.45 387.21 154.6 387.05 154.52 386.82 154.37 386.59 154.08 386.36 153.62 383.42 152.33 383.33 152.77 383.33 153.09 383.18 153.23 383.02 153.32 382.87 153.23 382.71 153.16 382.42 152.86 382.19 152.48 367.39 156.8 366.49 153.55"/><path class="cls-2" d="M393.8,257.55l-7.35-2.2L382,270.44l7.35,2.13ZM385.23,268l2.56-8.65,2.75.83L388,268.77Z"/><path class="cls-2" d="M375.51,256.1l-1,3.19,8.42,2.5,3.27-11.16-8.43-2.5-.91,3.27.84.22-1.37,4.7Zm4.4-3.79,3,.84L381.5,258l-3-.91Z"/><path class="cls-2" d="M374.07,261l-.9,3.19.82.22-1.43,4.78-.83-.22-1,3.25,8.35,2.44,3.26-11.16Zm3.57,9.71-3-.91L376,265l3,.9Z"/><polygon class="cls-2" points="398.04 247.01 397.5 248.75 373.77 241.77 372.85 245.03 374.45 245.48 366.49 272.65 368.84 273.39 376.8 246.24 396.53 252.09 388.87 278.26 391.22 278.94 400.48 247.68 398.04 247.01"/><polygon class="cls-2" points="392.66 204.37 399.42 204.37 399.42 210.51 401.76 210.51 401.76 193.52 399.42 193.52 399.42 200.95 381.43 200.95 380.82 198.15 392.21 198.15 392.42 198.52 392.58 198.83 392.82 198.91 392.96 198.98 393.11 198.83 393.27 198.68 393.35 198.31 393.49 197.84 393.72 194.81 380.15 194.81 379.52 192.53 376.88 193.75 376.58 193.91 376.42 194.05 376.35 194.28 376.35 194.52 376.42 194.74 376.66 194.96 376.88 195.18 377.34 195.5 380.98 209.68 383.55 210.36 382.12 204.29 390.31 204.29 390.31 209.68 391.74 209.68 392.66 209.68 392.66 204.37"/><path class="cls-2" d="M403.51,214.16l-.91-.15-.77-.16-.74-.15-.77-.22-.76-.23-.68-.16-.68-.22-.69-.23-.6-.23-.61-.22-.61-.31-.6-.22-.53-.23-.52-.31-.54-.3-.45-.31-.46-.22-.37-.3-.47-.3-1.14,3.18.62.46-.76.3-.75.23-.69.31-.67.22-.61.31-.6.22-.61.3-.61.3-.53.3-.53.24-.53.38-.53.22-.37-.38-.47-.46-.37-.53-.39-.53-.39-.53-.37-.61-.38-.54-.3-.67-.3-.6-.38-.68-.23-.69-.32-.68-.29-.74-.23-.69-.3-.85-.24-.75h-.29l-.24.3-.22.24-.24.29-.22.24-.3.22-.23.31-.22.22-.22.23v.45l.3.84.3.76.3.76.3.77.31.66.38.69.29.69.39.68.38.68.37.61.46.52.38.61.45.54.46.53-.54.61-.53.53-.45.61-.45.53-.46.53-.46.61-.36.53-.45.62-.3.53-.46.52-.3.62-.38.53-.31.61-.31.53v.31l.08.07v.08l.07.05.08.08.31.31.22.3.23.31.14.22.16.31.15.23.16.22.16.22v.09h.22l.08.07h.07l.3-.76.37-.68.4-.69.37-.69.37-.6.39-.69.46-.61.45-.52.38-.61.46-.52.46-.53.53-.53.45-.46.54-.45.45.31.53.3.46.3.54.3.54.23.6.3.53.23.6.22.62.23.68.23.69.22.6.24.76.22.68.15.68.23.77.15.76.16.75.15.82.15.85.15v3h2.35V216.58l.3.07.38.08.38.09.46.14.53.07.53.16.53.08.68.14.16.47.22.29.16.16h.15l.16-.16.15-.21.15-.39L404,217l.38-2.66Zm-7,7.88-.91-.15-.91-.14-.91-.16-.83-.23-.75-.14-.69-.24-.76-.15-.6-.22-.68-.16-.6-.23-.53-.23-.55-.23-.52-.22-.38-.23-.44-.23-.3-.3.45-.22.54-.23.53-.23.52-.21.53-.25.61-.22.6-.22.67-.23.62-.23.68-.15.76-.15.69-.24-.16-1.58.3.23.31.15.37.15.46.14.46.23.46.16.46.14.53.16Z"/><polygon class="cls-2" points="359.51 122.37 373.17 113.64 373.54 113.86 373.85 114.01 374.07 114.1 374.23 114.01 374.3 113.94 374.38 113.7 374.3 113.42 374.15 112.96 372.63 109.84 357.69 119.39 359.51 122.37"/><polygon class="cls-2" points="381.13 118.49 380.9 118.04 379.31 114.77 359.2 127.66 358.97 127.82 358.67 127.9 358.44 127.9 358.22 127.9 357.98 127.82 357.76 127.66 357.61 127.53 357.38 127.22 355.26 123.88 355.18 123.8 355.11 123.72 355.03 123.66 354.94 123.66 354.87 123.66 354.8 123.72 354.58 124.18 354.41 124.56 354.28 124.94 354.12 125.24 353.9 125.55 353.74 125.84 353.6 126.08 353.44 126.24 353.44 126.39 353.44 126.46 353.51 126.61 353.51 126.69 353.51 126.76 356.01 130.55 356.47 131.08 356.93 131.53 357.45 131.77 357.91 132 358.44 132 358.9 132 359.43 131.84 359.96 131.53 379.91 118.72 380.37 118.95 380.75 119.1 380.98 119.17 381.13 119.17 381.2 119.03 381.2 118.79 381.13 118.49"/><path class="cls-2" d="M354.41,117.05l.53-.3.61-.24.53-.29.62-.31.6-.3.6-.3.54-.31.61-.38.53-.31.6-.37.54-.38.6-.3-4.24-6.6.37-.15.38-.23.39-.15.3-.23.38-.23.37-.15.32-.23.37-.22,2.12,3.18-.91.61,1.9,3,9-5.76-8.8-13.73L354,98.24l2,3,1.07-.68,1,1.44-.84.53-.76.38-.68.38-.68.37-.7.31-.67.3-.52.24-.61.21-.53.16-.47.16-.67.07-.67.07h-.6l-.69.08-.68-.08h-.68l-.76-.14-.68-.07-.76-.08-.68-.16-.76-.21-.75-.16-.77-.3-.75-.23-.07-.08h-.23v1.52l-.06.3v1.06l-.08.15V107l.08.08v.08l.06.08.07.07.84.22.77.24.83.13.76.16.76.08.68.16.77.07.76.08.68.06h2.65l.62-.06h.59l.62-.08.61-.15.61-.08.53-.16.53-.14,2.35,3.55-.75.46-.76.46-.69.38-.68.31-.68.38-.6.29-.61.24-.61.22-.52.23-.47.14-.3.08h-.38l-.31-.08-.23-.07-.3-.07-.22-.15L349,114l-.23-.31-1.59-2.8-.08-.08-.07-.08h-.23v.08l-.15.31-.16.22-.21.31-.16.29-.16.32-.21.29-.17.23-.22.3h-.08l-.08.08v.46l.08.15,1.82,2.73.47.61.52.53.54.31.6.21.68.16h.61l.76-.08.76-.22.53-.23.61-.23.6-.29Zm8.66-20.34,5,7.75L364.14,107l-4.94-7.73Z"/><path class="cls-2" d="M276.21,28.83,264.68,54.24l3.26,1.52,7-15.26,10.92,5,4.62-10.17Zm7.28,13-7.58-3.48.84-1.89L284.4,40Zm1.89-4.09-7.65-3.5.91-1.89,7.59,3.48Z"/><path class="cls-2" d="M291.92,36l-4.63,10.17L297.83,51,292.6,62.35l-.07.23-.16.16-.14.14-.16.08-.22.08h-.22l-.24-.08-.31-.16L288,61.3v.07l-.08.08h-.06v.06h-.08l.13.46.08.46v.37l.09.38v.38l.07.3v.31l-.07.3v.08l.07.08.08.07v.07h.07l.08.08,3,1.37.68.24.61.14.54-.07.53-.08.45-.24.45-.29.39-.39.22-.61,10.4-22.67Zm6.75,12.82-7.21-3.34.91-1.89,7.21,3.34Zm-5.38-7.35.91-1.9,7.21,3.26-.91,1.89Z"/><polygon class="cls-2" points="223.02 20.64 223.56 20.93 224.17 21.32 224.69 21.69 225.24 22.15 225.77 22.6 226.29 23.06 226.83 23.52 227.36 24.04 227.89 24.57 230.16 22.91 229.71 22.45 229.26 21.99 228.72 21.46 228.19 21.01 227.57 20.56 226.97 20.11 226.37 19.64 225.69 19.18 225.01 18.74 224.24 18.35 222.13 20.11 222.5 20.33 223.02 20.64"/><polygon class="cls-2" points="220.68 27.61 221.37 28.07 221.97 28.52 222.58 28.98 223.26 29.43 223.87 29.89 224.47 30.41 225.08 30.94 227.29 29.35 226.97 28.98 226.6 28.59 226.07 28.14 225.54 27.76 225.01 27.31 224.39 26.93 223.71 26.46 223.02 26.02 222.2 25.56 221.37 25.03 219.39 26.54 220.07 27.23 220.68 27.61"/><polygon class="cls-2" points="227.2 36.71 227.65 36.1 228.12 35.58 226.68 32.85 224.77 35.2 224.24 35.8 223.71 36.41 223.18 36.94 222.66 37.55 222.13 38.08 221.59 38.6 221.06 39.15 220.53 39.67 220.07 40.21 219.54 40.66 219.02 41.11 218.49 41.57 218.03 42.03 217.49 42.48 219.47 44.83 219.78 45.13 220.07 45.36 220.22 45.43 220.38 45.43 220.6 45.36 220.68 45.21 220.75 44.9 220.84 44.52 221.3 44 221.82 43.47 222.28 42.86 222.72 42.33 223.18 41.8 223.64 41.19 224.1 40.66 224.55 40.05 225.01 39.52 225.46 38.92 225.91 38.38 226.37 37.78 226.83 37.25 227.2 36.71"/><path class="cls-2" d="M252.24,24.42l-8.88-1.29,1.3-.83.46.07.29-.07.24-.08.08-.07V22l-.08-.22-.24-.23-.37-.3-2.35-1.67-3.26,3-7.29-1-2.49,17.38-2.44-.37L226.83,41l8.34,1.21-.46.31-.53.22-.52.24-.61.22-.6.23-.69.24-.76.21-.76.16-.76.15-.84.21-.82.16-.91.08-.07.07h-.07l-.08.08v.07h-.09v.07h.09l.15.23.14.15.08.23.15.23.16.23.14.22.15.24.16.22v.08l.07.08H228l.08.08h.07l.08.07h.15l.68-.07.69-.08.75-.16.69-.08.75-.22.69-.16.76-.22.76-.23.75-.23.76-.3.75-.31.84-.37.76-.3.83-.38.54.45.61.47.6.52.61.38.69.46.61.45.68.39.77.46.68.37.74.38.77.38.76.37.85.39.82.3.07.09h.24v-.09H249l.15-.16.22-.14.16-.15.22-.24.31-.15.31-.15.3-.23.37-.16v-.07h.08V48.1l.07-.08v-.08l-.76-.31-.68-.29L249,47l-.77-.3-.67-.38-.76-.38-.76-.39-.75-.45-.77-.46-.76-.45-.76-.53-.83-.53,9.56,1.45.38-2.51-2.35-.3Zm-17-.16,9.33,1.38h-2l-.76.08h-1.52l-.75-.08h-1.6l-.76-.08h-.9l-.85-.07,1.13,2,3.72.23L239.79,31l-5.38-.74Zm-1.14,8.27,5,.69-.46.37-.52.47-.7.29-.6.32-.77.28-.76.31-.76.22-1,.24Zm12.29,8.81-5.24-.77.3-.53.54-.16.38-.14.15-.15v-.16l-.23-.16-.3-.14-.54-.15-.75-.24-2.28-.6-.83,1.9L233,39.36l.46-2.95,1.44,1.44.61-.15.6-.15.53-.23.54-.22.46-.23.52-.23.46-.22.38-.31-.31,2,3,.47.31-2.21.38.37.37.39.38.39.39.3.38.3.37.39.39.29.46.31,1.73-.91Zm.6-3.95-.68-.38-.61-.46-.53-.39-.53-.44-.54-.46-.52-.46-.46-.53-.38-.52,4.64.69Zm.76-5.23-5.08-.76.54-3.71,4.77-.23-1.14-1.53,1.75.24Z"/><polygon class="cls-2" points="244.8 29.35 244.66 29.73 244.42 29.96 244.27 30.19 244.05 30.41 243.9 30.64 243.74 30.8 243.59 30.94 245.79 31.78 245.94 31.71 246.09 31.55 246.32 31.33 246.46 31.18 246.7 30.87 246.93 30.57 247.08 30.27 247.39 29.89 245.03 29.06 244.8 29.35"/><polygon class="cls-2" points="238.96 29.66 238.73 29.35 238.51 29.12 238.2 28.83 237.98 28.45 237.6 28.14 237.29 27.76 235.4 28.45 235.71 28.83 236 29.12 236.24 29.43 236.53 29.66 236.69 29.96 236.9 30.19 237.14 30.41 237.29 30.57 239.34 30.04 239.19 29.89 238.96 29.66"/><path class="cls-2" d="M199.29,17.9l-31.1,4.47,3.94,27.54,3.57-.46-.23-1.05,24.36-3.56.15,1,3.26-.45ZM175.16,46,172,24.27l24.28-3.55,3.12,21.77Z"/><path class="cls-2" d="M184.57,30l-9.78,1.44,1,6.68,9.8-1.44Zm-6.15,5.61L178,32.85l4-.62.45,2.81Z"/><polygon class="cls-2" points="178.13 42.62 178.13 42.62 177.89 43.08 177.66 43.47 177.36 43.69 177.14 43.76 176.91 43.76 176.68 43.63 176.45 43.3 176.23 42.94 175.47 40.89 186.63 37.93 186.55 39.83 178.13 42.62"/><polygon class="cls-2" points="188.59 27.46 188.59 27.46 188.66 28.21 188.89 28.9 189.05 29.66 189.27 30.33 189.43 31.02 189.65 31.71 189.89 32.31 190.1 33 190.34 33.6 190.56 34.28 190.87 34.81 191.11 35.42 191.32 34.81 191.55 34.13 191.7 33.46 191.93 32.69 192.09 32.16 192.24 31.4 192.39 30.8 192.53 30.11 192.69 29.52 192.83 28.83 195.5 29.2 195.95 29.35 196.26 29.52 196.41 29.66 196.47 29.73 196.41 29.96 196.26 30.11 196.03 30.27 195.5 30.41 195.42 31.02 195.27 31.71 195.11 32.39 194.97 33 194.74 33.68 194.51 34.28 194.35 34.96 194.13 35.58 193.91 36.25 193.68 36.94 193.37 37.55 193.06 38.15 193.14 38.3 193.22 38.47 193.37 38.6 193.53 38.75 193.68 38.92 193.91 39.07 194.06 39.21 194.28 39.36 194.51 39.44 194.65 39.36 194.9 39.15 195.04 38.83 195.27 38.47 195.42 37.93 195.64 37.32 195.87 36.56 196.18 36.56 196.41 36.71 196.63 36.87 196.85 37.02 197.16 37.25 197.39 37.4 197.69 37.55 198 37.78 198.22 37.93 198.22 38.01 198.22 38.01 198.22 38.08 198.3 38.08 198.3 38.08 198.3 38.08 198.3 38.08 198.38 38.01 198.22 38.55 198.07 38.99 197.93 39.36 197.69 39.83 197.53 40.28 197.32 40.74 197.09 41.11 196.85 41.57 196.63 41.8 196.33 42.03 196.03 42.17 195.71 42.33 195.42 42.41 195.04 42.48 194.65 42.48 194.28 42.41 193.83 42.26 193.45 42.09 192.99 41.94 192.62 41.64 192.24 41.42 191.93 41.11 191.55 40.82 191.24 40.43 190.79 40.96 190.42 41.42 189.95 41.87 189.5 42.33 189.05 42.78 188.59 43.16 188.06 43.54 187.53 43.84 187.37 43.84 187.08 43.63 186.77 43.47 186.47 43.23 186.16 43.08 185.86 42.94 185.57 42.78 185.25 42.7 184.95 42.55 184.95 42.55 184.95 42.48 184.95 42.48 184.95 42.41 184.95 42.41 185.02 42.33 185.02 42.33 185.02 42.26 185.57 41.87 186.09 41.49 186.63 41.11 187.22 40.66 187.68 40.13 188.21 39.67 188.75 39.15 189.27 38.55 188.97 38.01 188.75 37.48 188.44 36.87 188.21 36.34 187.92 35.73 187.68 35.2 187.45 34.59 187.22 33.98 187 33.46 186.77 32.85 186.63 32.23 186.39 31.62 186.24 31.02 186.01 30.41 185.86 29.8 185.71 29.2 185.57 28.59 185.48 27.92 173.57 29.66 173.26 27.46 185.02 25.79 184.65 23.06 187.22 22.91 187.68 22.91 188.06 22.91 188.3 22.99 188.44 23.13 188.44 23.29 188.36 23.52 188.21 23.74 187.92 24.12 188.06 25.34 191.24 24.88 191.11 24.64 190.95 24.42 190.72 24.19 190.49 24.04 190.26 23.82 190.02 23.66 189.72 23.44 189.43 23.29 191.24 21.99 191.79 22.22 192.24 22.54 192.69 22.83 193.06 23.13 193.45 23.44 193.75 23.74 193.97 24.12 194.21 24.5 195.27 24.35 195.57 26.46 188.59 27.46"/><path class="cls-2" d="M146.71,30.94l-13,6L143.77,59,147,57.5l-1.44-3.11,6.53-3,1.06,2.36,3.34-1.52ZM144.52,52l-6.45-14.19,6.45-3L151,49.08Z"/><polygon class="cls-2" points="133.43 52.5 134.05 52.71 134.65 52.95 135.26 53.03 135.85 53.18 136.54 53.18 137.16 53.24 138.22 50.37 137.53 50.29 136.94 50.22 136.33 50.14 135.64 49.91 135.04 49.77 134.35 49.53 133.75 49.24 133.06 49 132.46 48.62 131.77 48.24 131.17 47.87 130.49 47.41 135.72 45.06 134.65 42.7 129.11 45.21 127.06 40.74 127.3 40.5 127.6 40.28 127.9 39.98 128.36 39.67 128.8 39.29 129.26 38.92 129.8 38.47 130.49 37.93 131.01 37.78 131.39 37.62 131.7 37.4 131.91 37.25 131.99 37.09 131.99 37.02 131.91 36.87 131.7 36.71 128.8 35.58 128.28 36.1 127.67 36.56 127.06 37.09 126.45 37.62 125.78 38.15 125.17 38.6 124.49 39.15 123.8 39.6 123.11 40.05 122.44 40.5 121.77 41.04 121 41.49 120.24 41.94 119.48 42.41 118.72 42.78 117.96 43.23 117.13 43.69 116.37 44.16 116.22 44.37 116.61 44.52 116.89 44.68 117.29 44.9 117.58 45.06 117.9 45.21 118.19 45.36 118.42 45.58 118.72 45.74 119.41 45.36 120.09 45.06 120.78 44.68 121.46 44.29 122.14 43.92 122.82 43.54 123.5 43.08 124.11 42.7 125.92 46.65 118.57 49.99 119.7 52.34 125.55 49.69 125.48 50.37 125.39 51.13 125.25 51.89 125.09 52.58 124.95 53.32 124.79 54.01 124.57 54.78 124.33 55.45 124.11 56.13 123.89 56.82 123.64 57.5 123.36 58.19 123.06 58.87 122.75 59.55 122.44 60.23 122.06 60.84 122.14 60.91 122.14 60.99 122.22 61.06 122.3 61.06 122.75 61.06 123.11 61.14 123.5 61.14 123.89 61.14 124.26 61.21 124.57 61.3 124.87 61.37 125.09 61.45 125.48 61.3 125.92 60.45 126.3 59.7 126.61 58.87 126.91 58.11 127.22 57.43 127.52 56.66 127.75 55.99 127.97 55.23 128.2 54.53 128.36 53.85 128.52 53.18 128.66 52.58 134.13 64.55 137.39 63.12 132.23 51.97 132.84 52.26 133.43 52.5"/><path class="cls-2" d="M107.8,65.85,101,71.69,96.2,66.14l5.61-4.84-1.75-2-5.61,4.86-3-3.49.22-.52.08-.39v-.31l-.08-.15-.16-.08h-.22l-.3.15-.45.31-3.26,2.13,4.17,4.92L85,72.29l-3-3.4.14-.54.08-.38v-.23l-.08-.22-.14-.08h-.24l-.3.15-.38.21L77.92,70l4.17,4.85-5.69,5,1.73,2,5.69-4.93,4.87,5.55L81.63,88.6l1.73,2,26.19-22.77Zm-16.15,14-4.85-5.55,6.44-5.61,4.86,5.54Z"/><polygon class="cls-2" points="113.41 74.27 112.81 74.2 112.19 74.2 111.52 74.2 110.91 74.2 110.15 74.27 109.46 74.34 108.71 74.34 107.95 74.42 107.19 74.57 106.36 74.65 105.45 74.8 104.61 74.87 103.7 75.03 102.8 75.17 101.81 75.41 101.43 78.74 102.26 78.51 102.95 78.37 103.77 78.3 104.54 78.14 105.29 78.05 106.06 77.98 106.74 77.91 107.49 77.83 108.25 77.75 109.02 77.68 109.78 77.68 110.53 77.68 111.21 77.68 111.97 77.68 112.73 77.68 113.49 77.68 113.94 74.27 113.41 74.27"/><polygon class="cls-2" points="95.58 83.52 95.28 83.52 94.98 83.59 91.79 84.13 91.79 84.89 91.79 85.65 91.71 86.4 91.71 87.17 91.56 87.91 91.49 88.68 91.34 89.36 91.19 90.11 91.03 90.88 90.81 91.57 90.65 92.32 90.43 93 90.13 93.69 89.9 94.37 89.52 95.13 89.22 95.73 92.78 95.59 93.08 94.9 93.3 94.14 93.61 93.45 93.84 92.7 94.06 91.94 94.3 91.18 94.45 90.43 94.68 89.66 94.82 88.9 94.98 88.07 95.13 87.24 95.28 86.4 95.35 85.57 95.43 84.73 95.74 84.36 95.81 84.04 95.89 83.89 95.89 83.67 95.74 83.59 95.58 83.52"/><path class="cls-2" d="M79,109.16l-.14-.61-.15-.53-.23-.6-.31-.6-.3-.53-.38-.61-.46-.6h-.09V105h-.37l-.3.07-.3.14-.37.08-.3.08-.38.07-.31.16-.38.08h-.31l-.08.08h-.06l-.08.07-.08.08V106H73.5v.14l.54.76.46.75.38.61.3.61.14.61.15.46v.53l-.08.37-.14.46-.31.23-.45.3L74,112l-.54.31-.61.22-.67.23-.69.16-.75.22-.76.16H68.81l-.61-.08h-.6L67,113.1,66.3,113l-.68-.15-.68-.24,5.76-9-2.27-1.43-6.07,9.41-4.24-2L64,100.51l-7.82-5L40.89,119.17l20,12.83-1.6,4,2.89.54.38.07.3-.07.22-.08.16-.15.07-.24v-.29l-.07-.39L63,135l5.4-15.78-2.13-1.82-4,11L57,124.94l5.93-9.18.67.23.76.17.68.14.61.07.68.15.61.08.69.08h.6l.54.08h.6l.83-.08.76-.16.77-.15.76-.21.75-.23.68-.3.69-.3.69-.38.67-.31.6-.46.61-.53.53-.53.37-.53.38-.61.31-.53.15-.61.15-.53v-.6Zm-33.9,8.12,11.06-17.14,3.57,2.26L48.63,119.55Zm9.7,6.22-4-2.51,5.23-8.19,4.25,2.05Z"/><polygon class="cls-2" points="22.3 215.37 22.3 215.37 24.35 215.37 24.35 218.69 22.3 218.69 22.3 227.88 19.81 227.88 19.81 218.78 16.92 218.78 17.38 215.51 17.45 215.06 17.6 214.76 17.68 214.61 17.83 214.45 17.98 214.54 18.2 214.69 18.36 214.91 18.58 215.37 19.81 215.37 19.81 206.57 17.07 206.57 17.45 203.45 17.53 203.01 17.6 202.63 17.75 202.48 17.9 202.31 18.05 202.4 18.2 202.55 18.43 202.85 18.66 203.31 19.81 203.31 19.81 194.12 22.3 194.12 22.3 203.31 24.35 203.31 24.35 206.57 22.3 206.57 22.3 215.37"/><path class="cls-2" d="M42.64,209.37V197.24H40.36v12.13h-2.2V195.5H35.81v5.76H32.62v-7H30.19v7H27.08v-4.48H24.65v28.37h2.43v-4.4h3.11v7.81h2.43v-7.74h3.19v6.29h2.35V212.79h2.2v12.29h2.35V212.79h3.72v-3.42Zm-12.45,7.73H27.08v-4.32h3.11Zm0-7.73H27.08v-4.64h3.11Zm5.62,7.73H32.62v-4.32h3.19Zm0-7.73H32.62v-4.64h3.19Z"/><path class="cls-2" d="M45.44,271.88l-2.8-9.56,10.62-3.1-1.07-3.65-10.62,3.12L39,250l2.12-.61L40,245.48l-13.43,3.94L30.27,262l-4.32,1.22-.31-.3-.3-.23-.23-.08h-.23l-.07.15-.07.23v.38l.07.54.68,3.49,5.84-1.74,3.87,13.21,13.43-4-1.06-3.65ZM30.27,252.62l6.15-1.82,2.51,8.64-6.15,1.83Zm6.45,21.85-2.8-9.56L40,263.17l2.81,9.48Z"/><polygon class="cls-1" points="211.04 131 211.04 131 212.25 132.22 213.93 133.81 215.91 135.79 218.03 137.84 220.15 140.26 222.28 142.84 224.02 145.2 225.46 147.17 226.9 149.29 228.19 151.26 229.4 153.32 230.39 155.21 231.6 157.41 232.82 159.76 233.8 162.11 235.02 165.23 236.32 168.64 237.22 171.38 237.98 174.1 238.58 176.82 239.27 180.24 239.71 183.2 240.03 185.7 240.41 188.59 240.63 191.93 240.71 195.1 240.63 198.07 240.48 201.03 240.32 203.39 240.03 205.89 239.65 208.31 239.12 211.34 238.51 214.3 237.82 216.96 237.22 219.47 236.46 221.66 235.85 223.33 235.32 224.85 234.64 226.83 233.8 228.73 232.98 230.54 231.53 233.65 230.46 235.62 231.83 233.57 232.9 231.75 233.8 230.09 234.87 228.11 235.77 226.22 237.01 223.48 237.68 221.89 238.2 220.61 239.04 218.32 239.71 216.27 240.41 213.77 241.01 211.95 241.47 209.98 241.93 207.93 242.38 205.89 242.75 203.6 243.06 201.19 243.44 198.45 243.59 195.95 243.74 193.44 243.82 190.87 243.82 189.57 243.74 187.07 243.59 184.27 243.29 181.22 242.98 178.27 242.68 176.54 242.31 174.4 241.69 171.6 241.09 169.24 240.03 165.6 238.96 162.72 238.27 160.97 237.45 159 237.01 157.86 236.53 156.96 236 155.97 235.55 155.05 235.17 154.52 236.32 153.39 237.6 151.8 238.51 150.43 239.34 149.07 240.17 147.63 240.86 146.41 241.53 145.04 242.08 143.53 242.53 142.47 242.91 141.4 243.13 140.8 243.97 142.01 244.5 142.93 245.03 143.83 245.64 144.75 246.25 145.88 247.22 147.78 248.07 149.44 249.06 151.56 250.12 154.37 251.25 157.63 251.78 159.98 252.54 163.11 253.15 166.28 253.54 169.09 253.75 171.9 254.14 175.16 254.28 177.66 254.37 180.93 254.37 184.72 254.14 188.59 253.91 191.78 253.46 194.74 253 197.78 252.24 201.26 251.41 204.29 250.35 207.79 249.27 211.12 247.99 214.38 246.7 217.41 244.96 220.9 243.59 223.41 242.38 225.69 241.31 227.35 239.96 229.26 238.2 231.75 235.55 235.32 236.77 233.96 239.34 231.31 242.83 227.88 245.11 225.83 247.39 223.94 250.04 221.96 252.85 219.84 256.49 217.49 259.68 215.75 262.79 213.85 267.34 211.5 271.81 209.53 275.68 208.01 280 206.57 284.86 205.21 289.56 204.06 293.96 203.23 296.92 202.85 299.64 202.48 302.77 202.24 307.01 201.94 312.25 201.94 314.9 202.02 313.53 203.23 312.63 204.37 311.63 205.43 310.51 206.94 309.36 208.47 308.61 209.9 307.76 211.34 306.78 211.34 302.84 211.34 299.96 211.57 298.05 211.73 296.54 211.88 292.52 212.35 289.64 212.87 283.94 214.08 277.51 215.81 272.42 217.49 268.63 219.16 264 221.22 259.9 223.33 254.37 226.59 249.73 229.63 244.96 233.27 241.09 236.61 238.35 239.33 235.4 242.14 238.2 240.1 241.25 237.74 245.64 234.7 250.27 231.99 254.59 229.63 259.07 227.57 262.94 225.91 266.95 224.47 271.43 222.96 276.51 221.75 281.6 220.61 286.54 219.84 290.18 219.47 293.96 219.16 299.42 219.16 304.65 219.24 309.13 219.61 314.45 220.22 318.61 220.98 323.85 222.19 328.49 223.57 333.19 225.08 337.57 226.83 336 230.76 334.02 234.7 331.44 239.57 328.77 243.66 326.12 247.38 322.04 252.31 318.08 256.56 314.82 259.67 310.87 263 307.24 265.58 302.69 268.69 299.42 270.44 295.25 272.65 291.92 274.16 287.06 275.99 281.75 277.73 276.44 279.09 271.05 280 264.31 280.68 259.44 281 255.35 280.83 251.1 280.6 254.83 281.21 260.06 281.75 264.98 281.97 269.08 281.97 273.33 281.82 277.88 281.29 283.19 280.46 288.27 279.32 293.05 277.95 298.6 275.91 302.46 274.24 305.8 272.57 310.14 270.14 314.29 267.56 317.93 264.99 321.72 261.71 324.77 259.06 325.52 258.24 326.51 258.69 327.49 258.98 328.86 259.44 330.46 259.83 331.75 260.12 333.49 260.36 335.54 260.51 333.94 262.24 332.89 263.38 331.9 264.45 329.7 266.58 326.43 269.31 323.02 272.04 319.9 274.38 315.43 277.12 310.95 279.62 307.01 281.6 302.46 283.41 296.01 285.68 290.4 287.05 284.64 288.11 280.24 288.65 275.76 289.03 271.81 289.03 266.35 288.81 260.58 288.11 256.34 287.51 252.39 286.68 247.91 285.46 244.27 284.33 240.86 282.95 236.77 281.21 233.27 279.47 229.94 277.66 225.83 274.99 220.53 271.44 216.88 268.54 213.86 265.89 211.04 263.09 208.31 265.89 205.28 268.54 201.65 271.44 196.26 274.99 192.24 277.66 188.89 279.47 185.48 281.21 181.39 282.95 177.89 284.33 174.34 285.46 169.85 286.68 165.84 287.51 161.66 288.11 155.82 288.81 150.36 289.03 146.42 289.03 141.94 288.65 137.62 288.11 131.77 287.05 126.24 285.68 119.78 283.41 115.15 281.6 111.21 279.62 106.74 277.12 102.26 274.38 99.16 272.04 95.74 269.31 92.48 266.58 90.36 264.45 88.23 262.24 86.71 260.58 88.75 260.36 89.82 260.2 91.11 259.98 92.41 259.67 93.77 259.37 95.06 258.98 96.65 258.38 97.49 259.06 100.44 261.71 104.23 264.99 107.88 267.56 112.05 270.14 116.45 272.57 119.78 274.24 123.57 275.91 129.19 277.95 133.89 279.32 138.98 280.46 144.28 281.29 148.91 281.82 153.08 281.97 157.18 281.97 162.11 281.75 167.35 281.21 171.06 280.6 166.9 280.83 162.72 281 157.95 280.68 151.11 280 145.8 279.09 140.49 277.73 135.11 275.99 130.32 274.16 126.91 272.65 122.75 270.44 119.48 268.69 114.93 265.58 111.36 263 107.34 259.67 104.08 256.56 100.14 252.31 96.11 247.38 93.38 243.66 90.73 239.57 88.15 234.7 86.18 230.76 84.58 226.83 89.06 225.08 93.77 223.57 98.32 222.19 103.55 220.98 107.73 220.22 113.11 219.61 117.51 219.24 122.75 219.16 128.28 219.16 132.07 219.47 135.64 219.84 140.58 220.61 145.66 221.75 150.74 222.96 155.22 224.47 159.29 225.91 163.11 227.57 167.58 229.63 171.9 231.99 176.53 234.7 181.02 237.74 183.96 240.1 186.77 242.14 183.82 239.33 181.08 236.61 177.28 233.27 172.43 229.63 167.88 226.59 162.26 223.33 158.16 221.22 153.63 219.16 149.76 217.49 144.67 215.81 138.22 214.08 132.53 212.87 129.65 212.35 125.63 211.88 124.11 211.73 122.22 211.57 119.33 211.34 115.39 211.34 114.55 211.34 113.79 209.98 113.17 209 112.58 207.93 111.67 206.72 110.68 205.5 109.7 204.37 108.71 203.23 107.49 202.09 110 201.94 115.15 201.94 119.41 202.24 122.58 202.48 125.32 202.85 128.28 203.23 132.62 204.06 137.31 205.21 142.16 206.57 146.57 208.01 150.36 209.53 154.84 211.5 159.37 213.85 162.57 215.75 165.75 217.49 169.32 219.84 172.19 221.96 174.79 223.94 177.07 225.83 179.41 227.88 182.9 231.31 185.48 233.96 186.63 235.32 183.96 231.75 182.22 229.26 180.94 227.35 179.87 225.69 178.58 223.41 177.2 220.9 175.47 217.41 174.18 214.38 172.97 211.12 171.82 207.79 170.77 204.29 169.93 201.26 169.24 197.78 168.72 194.74 168.34 191.78 168.04 188.59 167.88 184.72 167.88 180.93 167.88 177.66 168.04 175.16 168.41 171.9 168.81 169.09 169.24 166.37 169.78 163.64 170.61 160.51 171.38 157.78 172.35 154.75 173.33 152.09 174.42 149.44 175.32 147.47 176.38 145.12 176.68 144.36 178.5 140.95 178.96 142.31 179.49 143.6 180.17 145.2 180.7 146.41 181.23 147.4 181.75 148.3 182.3 149.29 182.9 150.12 183.58 151.11 184.41 152.25 185.02 153.01 185.57 153.62 186.16 154.23 186.39 154.45 186.01 155.29 185.63 156.11 185.25 157.03 184.87 157.94 184.49 158.92 183.89 160.37 183.28 162.19 182.14 165.6 181.16 169.24 180.47 171.6 179.87 174.4 179.49 176.54 179.18 178.27 178.9 181.22 178.58 184.27 178.42 187.07 178.42 189.57 178.42 190.87 178.42 193.44 178.58 195.95 178.81 198.45 179.11 201.19 179.41 203.6 179.87 205.89 180.25 207.93 180.7 209.98 181.23 211.95 181.75 213.77 182.52 216.27 183.14 218.32 184.03 220.61 184.57 221.89 185.18 223.48 186.39 226.22 187.37 228.11 188.36 230.09 189.35 231.75 190.42 233.57 191.7 235.62 190.64 233.65 189.2 230.54 188.44 228.73 187.61 226.83 186.92 224.85 186.31 223.33 185.71 221.66 185.02 219.47 184.35 216.96 183.66 214.3 183.05 211.34 182.52 208.31 182.14 205.89 181.92 203.39 181.68 201.03 181.6 198.07 181.54 195.1 181.6 191.93 181.75 188.59 182.14 185.7 182.44 183.2 182.9 180.24 183.58 176.82 184.26 174.1 185.02 171.38 185.94 168.64 187.16 165.23 188.36 162.11 189.35 159.76 190.56 157.41 191.79 155.21 192.76 153.32 193.97 151.26 195.27 149.29 196.63 147.17 198.07 145.2 199.89 142.84 201.95 140.26 204.14 137.84 206.2 135.79 208.16 133.81 209.9 132.22 211.04 131"/></svg>