<svg xmlns="http://www.w3.org/2000/svg" viewBox="0 0 434.96 67.67">
    <defs>
        <style>
            .cls-1{fill:#008c44;}.cls-2{fill:#d71920;}.cls-3{fill:#fff;}
        </style>
    </defs>
    <rect width="67.65" height="22.5" y="45.17" class="cls-1"/>
    <rect width="67.65" height="45.25" class="cls-2"/>
    <path d="M43.34,24.49a1.64,1.64,0,0,0,1,.18l.12-.61L43.1,24Z" class="cls-3"/>
    <path d="M45.29,24.77l.53,0,.08.34.77,0,.1-1.05h-1.6Z" class="cls-3"/>
    <polygon points="48.59 24.06 48.77 24.64 49.62 24.64 49.61 24.05 48.59 24.06" class="cls-3"/>
    <polygon points="47.37 24.06 47.51 24.62 47.89 24.62 48.01 24.06 47.37 24.06" class="cls-3"/>
    <path d="M53.22,52a1.79,1.79,0,0,1-1.91-1.54l-.14-.69c.43-.45.85-.9,1.25-1.38Zm-4.55-.25H47.55l0,0c-.07-.4-.26-1.7-.46-3.21h1.57l.44,2.72,0,.14-.45.38m-1.06.16h.85c-.19.16-.4.31-.6.45a1.39,1.39,0,0,1-.25-.45M45,54.17c.21-.8.42-1.63.42-1.63a2.47,2.47,0,0,1-2.88-.66h3.16l0,.33a5.8,5.8,0,0,0,.35,1.34c-.36.22-.73.42-1.09.62M33.94,57A23.62,23.62,0,0,1,23,54.3l.57-1.08a1.17,1.17,0,0,1-1.16-1.34h1.88a4.58,4.58,0,0,0,3.48,3.7l1.33-3A2,2,0,0,1,27,51.88h2.4a3.17,3.17,0,0,0,1.16,3,4.07,4.07,0,0,1,1,1l1.22-3.09a1.4,1.4,0,0,1-1.07-.86H33a7.93,7.93,0,0,0,1.12,2.33c1.54,2.19,4.54,2.11,6-.66l-1.21-1.67h1.21a7.77,7.77,0,0,0,1.29,2.33,4.33,4.33,0,0,0,1.28,1A23.27,23.27,0,0,1,33.94,57m-14.7-5.07h.86l-.11.46v.08c-.26-.18-.5-.35-.74-.54m-1-.84L19,48.48h1.9l-.78,3.25H19c-.28-.22-.51-.46-.77-.69m-2.56-2.56h1.15l-.29.92c-.28-.3-.59-.6-.86-.92m-.55-.73L16,45.27h1.8a3.64,3.64,0,0,1-.15.73l-.72,2.31H15.58c-.15-.17-.28-.38-.42-.56m-1.72-2.48h.4l-.15.4c-.09-.14-.18-.27-.25-.4m-1.6-3.2H36.08c-.88.22-2,.92-2.77,3H32c.17-1.65.3-3,.3-3h-2l-.12.73c-.44-1.13-2.51-1-3.83.65a9,9,0,0,0-1,1.61H23.77l0-.23a2.31,2.31,0,0,0-2.28-2.76H15l-1.06,3h-.57a24.84,24.84,0,0,1-1.48-3m-1-3.25H57.07c-.15.6-.78,2.33-1,2.93l-.58,0,.07.22H12.35l.07-.21h-.73a14.79,14.79,0,0,1-.89-2.91m-.4-1.75-.2-1.44H20.46l-.69,3H13l.14-.44H10.64Zm-.32-3.3.05-1.35H32.24l-.15.36a17.48,17.48,0,0,0-.17,2.68H23.09L23.32,34c.26-1.67-1.84-1.87-2.42-.21l-.4,1.72H13.86l.27-.86h-4Zm.21-3.53a5.77,5.77,0,0,1,.16-1l42.16,0v0h4.74s.08.42.14.91.16.93.16.93l-5,0L53,32.26H35.41a1.77,1.77,0,0,0-3.1,0H14.81l.29-1.08H10.21s0-.43.08-.93M11.21,26l39.86,0,0-.16H16.79a1.54,1.54,0,0,0,0-.39h.42c.15-.6.38-1.34.38-1.34l-5.67,0,.61-1.41h5.26c-.12-.49.72-.5.63,0h2.15c-.2-.49.69-.55.57,0H46.63a.31.31,0,1,1,.59,0h2.26c-.12-.52.63-.52.55,0h5.21l.6,1.34H50.35s.23.73.37,1.32h.42l-.07.61h5.49L57,27.59H51.68l.28,1h.82l-.15.5H15.11L15,28.66h.82l.28-1H10.77Zm3.2-6.44h12a4.48,4.48,0,0,0,.19-1.05c.07-.41.42-.36.4,0l-.11,1h14l0-1.18c0-.35.3-.37.35,0s.17,1.14.17,1.14h12c.28.34.7,1.08.72,1.07H42.42l.16,1.08h.53l-.24.85h-18l-.22-.81h.54l.15-1.08-11.67,0s.46-.72.74-1.06m2.76-3.26H29.52l0-.24c.1-.18.29-.19.38,0l0,.23h6.77l0-.16H30.93c0-.33.08-1,.08-1,.13-.22.25-.22.37,0V16l1.7-1v-.25h.61v-.48h-.84v-.39h.85v-.55H20.85a2.48,2.48,0,0,1,.77-.43H33.9v0l12.34,0a3.14,3.14,0,0,1,.69.47H34.08v.55h.85v.4h-.85v.48h.56V15l1.67.95,0-.81a.19.19,0,0,1,.35,0l.1,1.14H38v-.21c.09-.23.32-.24.4,0v.19H50.64c-.2-.22.93.87.74.79H39v.27l.37.16-.12,1.21.11.65h-11l.09-.63-.11-1.2.33-.1-.1-.33c-2,0-12.17,0-12.17,0-.19.07.9-1,.76-.81M57.72,33.74l0,.87h-4l.24.86H47.31l-.41-1.75c-.58-1.71-2.7-1.34-2.42.21l.23,1.54H35.82a18.5,18.5,0,0,0-.18-2.65,2.26,2.26,0,0,0-.15-.39H57.72Zm-11,1.89.51,2.52H45.31l-.38-2.52Zm-1.93-1L44.65,34c-.17-1.09,1.24-1.24,1.65-.14l.18.8Zm-8.94,1h8.92l.47,3H35.82c0-.42,0-1.72,0-3m-.09,0c0,.26,0,2.11,0,2.49H32c0-.37,0-2.09,0-2.48Zm-1.91-3.2h.12c.43,0,1.61.32,1.69,2.25h-3.5c.09-1.9,1.25-2.22,1.69-2.25m-10.75,3.2h8.85c0,1.32,0,2.62,0,3H22.62Zm-1.73-1,.16-.76c.52-1.12,1.84-1,1.65.13l-.09.63Zm-.23,1h1.78l-.37,2.53H20.59ZM57.41,37l-.24,1.18H54.71l.16.5H48.06l-.71-3H57.59Zm-3,8.1h-.61l-.83-3H51l.66,3H50.18l-.62-3H47.37l-.28,2h.85l.16,1H46.6l-.41-3H44.45v.32s0,.25,0,.38a1.9,1.9,0,0,0-1.19-.71H55.94a26.38,26.38,0,0,1-1.52,3m-.56.18h.45c-.1.16-.21.31-.31.48Zm-7.24,0h1.51l.48,3H47c-.14-1-.29-2.07-.42-3m-4.92,3a15.09,15.09,0,0,1,.28-3h2.75l.43,3Zm.47,3a8.14,8.14,0,0,1-.47-2.88h3.47l.47,3.24H42.38ZM31.53,50.8c0-.36.1-1.25.2-2.32h.91A9.65,9.65,0,0,0,33,51.73H31.61a2.62,2.62,0,0,1-.08-.93m-5.24-1.68c0-.21.05-.43.07-.64h3.3l-.25,3.13v.12H26.88a4.62,4.62,0,0,1-.59-2.61m-2-.64a16.12,16.12,0,0,0-.17,1.82,5.92,5.92,0,0,0,.15,1.43H22.44l.65-3.25Zm8.35-.17h-.91c.09-1,.2-2.05.3-3h1.23a12.63,12.63,0,0,0-.62,3m7.43-3c0,.13-.07.26-.1.4a16,16,0,0,0-.3,2.64h-5a10.78,10.78,0,0,1,.56-3Zm4.61-.18H42c.44-2.06,2.35-1.15,2.68,0m-6.72-3h4.7l-.09,0a4.06,4.06,0,0,0-2.46,3H35.34c.95-2.29,3.29-1.49,3.22-.07l1.25-1.62A2.64,2.64,0,0,0,38,42.08m-8,3.19-.25,3H26.39a8.36,8.36,0,0,1,1.06-3Zm0-.18H27.57a2.73,2.73,0,0,1,.26-.43c.77-1,2.22-.89,2.11.16Zm-6.19.18h1.51a11.17,11.17,0,0,0-.92,3h-1.2ZM20,45.09l.34-1.16c.67.07,1.33.33,1.33,1.16Zm1.67.18a2.25,2.25,0,0,1-.07.4L21,48.31h-1.9l.9-3Zm-3.9-.18H16L16.42,44c.81.12,1.37.3,1.37,1.12m20.7,6.79a1.89,1.89,0,0,1-3.23,0v0Zm.18-.36-.1.21H35.18a7.84,7.84,0,0,1-.48-3.25h5a10,10,0,0,0,.42,3.25H38.82Zm13.46-3.21H50.87l-.64-3h1.5l.62,2.78Zm-1.23.17H52c-.29.33-.57.67-.88,1Zm7-15.27a24,24,0,0,0-48.07.06,23.44,23.44,0,0,0,3.75,12.62l-3.38,9.53h2.35L15.08,48c.46.57.94,1.11,1.43,1.64l-1.8,5.81H17l1.24-4.18A21.14,21.14,0,0,0,20,52.6a2.5,2.5,0,0,0,1.14,2.5l1.09.73.75-1.38a23.67,23.67,0,0,0,11,2.7H34a23.92,23.92,0,0,0,9-1.8,3.92,3.92,0,0,0,1.56.32s.17-.57.35-1.23c.43-.22.84-.46,1.25-.71a3.11,3.11,0,0,0,2.78,2l.21-3a1.74,1.74,0,0,1-1.1-.27c.4-.28.8-.57,1.18-.89.88,3.23,3.45,4,7.52,3.84l-2.63-9.36a23.66,23.66,0,0,0,3.85-12.85" class="cls-3"/>
    <path d="M23.44,24.76a1.75,1.75,0,0,0,.91-.13l.3-.55h-1.3Z" class="cls-3"/>
    <polygon points="21.05 24.1 21.05 25.13 21.89 25.12 22.01 24.78 22.54 24.79 22.75 24.09 21.05 24.1" class="cls-3"/>
    <polygon points="18.16 24.1 18.15 24.65 19.09 24.65 19.39 24.1 18.16 24.1" class="cls-3"/>
    <polygon points="19.87 24.1 19.91 24.66 20.18 24.66 20.44 24.1 19.87 24.1" class="cls-3"/>
    <path d="M93.26,31.33v8.35h2.46a2.67,2.67,0,0,0,2.65-1.86,6.87,6.87,0,0,0,.4-2.45,5.93,5.93,0,0,0-.61-3,2.59,2.59,0,0,0-2.44-1.05Zm4.9-1.94A4.2,4.2,0,0,1,100.33,31a5.8,5.8,0,0,1,.91,2.07,9.33,9.33,0,0,1,.25,2.11,8.44,8.44,0,0,1-1,4.33,4.62,4.62,0,0,1-4.28,2.39H90.67V29.11h5.51a6.83,6.83,0,0,1,2,.28"/>
    <rect width="2.66" height="12.79" x="103.15" y="29.12"/>
    <path d="M110.83,31.33v3.44h2.88a3.08,3.08,0,0,0,1.29-.21,1.43,1.43,0,0,0,.76-1.44,1.62,1.62,0,0,0-.73-1.56,2.67,2.67,0,0,0-1.25-.23Zm5.52-1.89a3.09,3.09,0,0,1,1.19.89,4.56,4.56,0,0,1,.65,1.08,3.57,3.57,0,0,1,.23,1.35,3.86,3.86,0,0,1-.45,1.79,2.57,2.57,0,0,1-1.51,1.25,2.34,2.34,0,0,1,1.23,1,4.28,4.28,0,0,1,.37,2v.86a7.29,7.29,0,0,0,.07,1.19,1.06,1.06,0,0,0,.5.72v.33H115.7c-.08-.28-.13-.52-.18-.69a6.73,6.73,0,0,1-.11-1.11l0-1.18A2.35,2.35,0,0,0,115,37.3a2.19,2.19,0,0,0-1.53-.41h-2.61v5h-2.62V29.11h6.12a5.67,5.67,0,0,1,2,.33"/>
    <polygon points="130.13 31.38 123.53 31.38 123.53 34.09 129.58 34.09 129.58 36.31 123.53 36.31 123.53 39.63 130.44 39.63 130.44 41.9 120.91 41.9 120.91 29.11 130.13 29.11 130.13 31.38"/>
    <path d="M133.75,30.48a5.92,5.92,0,0,1,8.56.53,4.56,4.56,0,0,1,.88,2.38h-2.67a3.6,3.6,0,0,0-.65-1.39,2.63,2.63,0,0,0-2.1-.83,2.57,2.57,0,0,0-2.23,1.18,5.79,5.79,0,0,0-.82,3.34,5.12,5.12,0,0,0,.86,3.23A2.67,2.67,0,0,0,137.77,40a2.49,2.49,0,0,0,2.07-.93,4.14,4.14,0,0,0,.66-1.5h2.66A5.77,5.77,0,0,1,141.41,41a5.1,5.1,0,0,1-3.6,1.31,5.42,5.42,0,0,1-4.28-1.77A7.15,7.15,0,0,1,132,35.63a7.06,7.06,0,0,1,1.77-5.15"/>
    <path d="M146.42,30.48A5.93,5.93,0,0,1,155,31a4.53,4.53,0,0,1,.86,2.38h-2.66a3.6,3.6,0,0,0-.65-1.39,2.87,2.87,0,0,0-4.34.35,6,6,0,0,0-.8,3.34,5.12,5.12,0,0,0,.86,3.23A2.67,2.67,0,0,0,150.44,40a2.5,2.5,0,0,0,2.08-.93,4.15,4.15,0,0,0,.65-1.5h2.66A5.82,5.82,0,0,1,154.08,41a4.84,4.84,0,0,1-3.39,1.31l-.53.76.4-.08.26,0a1.71,1.71,0,0,1,1.12.35,1.21,1.21,0,0,1,.43,1,1.47,1.47,0,0,1-.66,1.26A2.79,2.79,0,0,1,150,46a3.55,3.55,0,0,1-1.05-.19,7.54,7.54,0,0,1-.81-.27l.33-.75.68.2a3.39,3.39,0,0,0,.67.1,1.08,1.08,0,0,0,.75-.22l.22-.47a.5.5,0,0,0-.25-.5,1,1,0,0,0-.54-.15l-.32,0-.41.11-.37-.35.81-1.26a4.59,4.59,0,0,1-3.55-1.77,7.25,7.25,0,0,1-1.52-4.87,7.06,7.06,0,0,1,1.76-5.15"/>
    <path d="M161.32,37.07h3.27L163,32Zm1-11.25.39.11.81.32.48.16.26,0a.65.65,0,0,0,.58-.23,1.3,1.3,0,0,0,.25-.53h1.12a3.4,3.4,0,0,1-.61,1.53,1.6,1.6,0,0,1-1.35.61,3.06,3.06,0,0,1-.76-.13l-.54-.16-.7-.24-.3-.07-.28,0a.76.76,0,0,0-.54.19,1.12,1.12,0,0,0-.3.56h-1.12a4.35,4.35,0,0,1,.5-1.37,1.84,1.84,0,0,1,1.65-.82Zm-.85,3.29h3l4.5,12.8h-2.89l-.83-2.62H160.6l-.87,2.62h-2.8Z"/>
    <path d="M178.73,38.82a5.21,5.21,0,0,0,.93-3.32,5.22,5.22,0,0,0-.93-3.33A3,3,0,0,0,176.22,31a3.11,3.11,0,0,0-2.54,1.17,5.19,5.19,0,0,0-.93,3.34,5.15,5.15,0,0,0,.93,3.32A3.09,3.09,0,0,0,176.22,40a3,3,0,0,0,2.51-1.18m1.66,2a6.6,6.6,0,0,1-8.38,0,7,7,0,0,1-1.93-5.27A6.81,6.81,0,0,1,172,30.22a6.6,6.6,0,0,1,8.38,0,6.74,6.74,0,0,1,1.94,5.28,6.88,6.88,0,0,1-1.94,5.27"/>
    <path d="M191.56,31.33v8.35H194a2.66,2.66,0,0,0,2.63-1.86,6.66,6.66,0,0,0,.4-2.45,5.94,5.94,0,0,0-.6-3A2.59,2.59,0,0,0,194,31.33Zm4.89-1.94A4.18,4.18,0,0,1,198.63,31a5.8,5.8,0,0,1,.91,2.07,9.9,9.9,0,0,1,.24,2.11,8.64,8.64,0,0,1-1,4.33,4.66,4.66,0,0,1-4.3,2.39H189V29.11h5.5a6.77,6.77,0,0,1,2,.28"/>
    <path d="M209.85,38.82a5.21,5.21,0,0,0,.94-3.32,5.22,5.22,0,0,0-.94-3.33A3,3,0,0,0,207.34,31a3.08,3.08,0,0,0-2.53,1.17,5.19,5.19,0,0,0-.95,3.34,5.15,5.15,0,0,0,.95,3.32A3.06,3.06,0,0,0,207.34,40a3,3,0,0,0,2.51-1.18m1.67,2a6.6,6.6,0,0,1-8.38,0,6.88,6.88,0,0,1-1.94-5.27,6.74,6.74,0,0,1,1.94-5.28,6.6,6.6,0,0,1,8.38,0,6.78,6.78,0,0,1,1.94,5.28,6.91,6.91,0,0,1-1.94,5.27"/>
    <path d="M217.24,37.94a2.79,2.79,0,0,0,.48,1.32,2.82,2.82,0,0,0,2.26.79,4.71,4.71,0,0,0,1.55-.21,1.49,1.49,0,0,0,1.14-1.49,1.09,1.09,0,0,0-.57-1,6.08,6.08,0,0,0-1.76-.6l-1.37-.3a8.64,8.64,0,0,1-2.78-1,3.08,3.08,0,0,1-1.29-2.76,3.67,3.67,0,0,1,1.25-2.84,5.34,5.34,0,0,1,3.69-1.13,5.62,5.62,0,0,1,3.47,1.07A3.77,3.77,0,0,1,224.8,33h-2.54a1.84,1.84,0,0,0-1-1.64,3.51,3.51,0,0,0-1.57-.32,3,3,0,0,0-1.68.42,1.29,1.29,0,0,0-.62,1.15,1.1,1.1,0,0,0,.61,1,8.19,8.19,0,0,0,1.69.51l2.23.54a5.63,5.63,0,0,1,2.19.91,3.13,3.13,0,0,1,1.14,2.61,3.67,3.67,0,0,1-1.34,2.9,5.73,5.73,0,0,1-3.82,1.16,6.21,6.21,0,0,1-3.95-1.15,3.78,3.78,0,0,1-1.45-3.13Z"/>
    <path d="M233.72,37.94a2.9,2.9,0,0,0,.48,1.32,2.82,2.82,0,0,0,2.26.79,4.67,4.67,0,0,0,1.55-.21,1.47,1.47,0,0,0,1.13-1.49,1.09,1.09,0,0,0-.55-1,6.19,6.19,0,0,0-1.76-.6l-1.37-.3a8.72,8.72,0,0,1-2.79-1,3.1,3.1,0,0,1-1.29-2.76,3.69,3.69,0,0,1,1.24-2.84,5.42,5.42,0,0,1,3.7-1.13,5.62,5.62,0,0,1,3.47,1.07A3.82,3.82,0,0,1,241.3,33h-2.56a1.86,1.86,0,0,0-1-1.64,3.56,3.56,0,0,0-1.58-.32,2.89,2.89,0,0,0-1.66.42,1.28,1.28,0,0,0-.63,1.15,1.1,1.1,0,0,0,.61,1,8,8,0,0,0,1.68.51l2.23.54a5.62,5.62,0,0,1,2.2.91,3.13,3.13,0,0,1,1.14,2.61,3.65,3.65,0,0,1-1.35,2.9,5.67,5.67,0,0,1-3.81,1.16,6.21,6.21,0,0,1-4-1.15,3.8,3.8,0,0,1-1.44-3.13Z"/>
    <polygon points="252.8 31.38 246.21 31.38 246.21 34.09 252.26 34.09 252.26 36.31 246.21 36.31 246.21 39.63 253.12 39.63 253.12 41.9 243.59 41.9 243.59 29.11 252.8 29.11 252.8 31.38"/>
    <path d="M257.87,31.33v3.44h2.88a3.08,3.08,0,0,0,1.29-.21,1.43,1.43,0,0,0,.76-1.44,1.62,1.62,0,0,0-.74-1.56,2.62,2.62,0,0,0-1.24-.23Zm5.52-1.89a3.2,3.2,0,0,1,1.2.89,4.53,4.53,0,0,1,.64,1.08,3.39,3.39,0,0,1,.23,1.35,3.76,3.76,0,0,1-.46,1.79,2.51,2.51,0,0,1-1.51,1.25,2.29,2.29,0,0,1,1.24,1,4.16,4.16,0,0,1,.37,2v.86a6.28,6.28,0,0,0,.07,1.19,1,1,0,0,0,.51.72v.33h-2.95a6.42,6.42,0,0,1-.15-.69,5.11,5.11,0,0,1-.13-1.11V38.93A2.34,2.34,0,0,0,262,37.3a2.18,2.18,0,0,0-1.52-.41h-2.62v5h-2.62V29.11h6.12a5.67,5.67,0,0,1,2,.33"/>
    <polygon points="275.01 29.11 277.78 29.11 273.43 41.91 270.91 41.91 266.6 29.11 269.44 29.11 272.23 38.82 275.01 29.11"/>
    <rect width="2.67" height="12.79" x="279.02" y="29.12"/>
    <path d="M285.27,30.48a5.21,5.21,0,0,1,3.91-1.58A5.27,5.27,0,0,1,293.83,31a4.84,4.84,0,0,1,.88,2.38H292a3.92,3.92,0,0,0-.65-1.39,2.63,2.63,0,0,0-2.1-.83,2.55,2.55,0,0,0-2.23,1.18,5.78,5.78,0,0,0-.83,3.34,5.12,5.12,0,0,0,.87,3.23A2.67,2.67,0,0,0,289.29,40a2.48,2.48,0,0,0,2.07-.93,4.15,4.15,0,0,0,.65-1.5h2.66A5.77,5.77,0,0,1,292.92,41a4.84,4.84,0,0,1-3.39,1.31L289,43l.4-.08.27,0a1.68,1.68,0,0,1,1.11.35,1.17,1.17,0,0,1,.42,1,1.44,1.44,0,0,1-.65,1.26,2.75,2.75,0,0,1-1.67.47,3.61,3.61,0,0,1-1.07-.19,8.36,8.36,0,0,1-.81-.27l.32-.75.69.2a3.47,3.47,0,0,0,.68.1,1.08,1.08,0,0,0,.75-.22l.22-.47a.5.5,0,0,0-.26-.5,1,1,0,0,0-.53-.15l-.34,0-.4.11-.37-.35.82-1.26A4.58,4.58,0,0,1,285,40.5a7.2,7.2,0,0,1-1.53-4.87,7.06,7.06,0,0,1,1.77-5.15"/>
    <path d="M304.9,38.82a5.21,5.21,0,0,0,.93-3.32,5.22,5.22,0,0,0-.93-3.33A3,3,0,0,0,302.39,31a3.08,3.08,0,0,0-2.53,1.17,5.13,5.13,0,0,0-.94,3.34,5.09,5.09,0,0,0,.94,3.32A3.06,3.06,0,0,0,302.39,40a3,3,0,0,0,2.51-1.18m1.67,2a6.6,6.6,0,0,1-8.38,0,6.91,6.91,0,0,1-1.94-5.27,6.78,6.78,0,0,1,1.94-5.28,6.6,6.6,0,0,1,8.38,0,6.81,6.81,0,0,1,1.93,5.28,7,7,0,0,1-1.93,5.27"/>
    <path d="M312.29,37.94a2.69,2.69,0,0,0,.48,1.32,2.82,2.82,0,0,0,2.26.79,4.82,4.82,0,0,0,1.56-.21,1.49,1.49,0,0,0,1.12-1.49,1.07,1.07,0,0,0-.57-1,5.78,5.78,0,0,0-1.75-.6l-1.37-.3a8.81,8.81,0,0,1-2.79-1,3.1,3.1,0,0,1-1.29-2.76,3.7,3.7,0,0,1,1.25-2.84,5.38,5.38,0,0,1,3.69-1.13,5.58,5.58,0,0,1,3.47,1.07A3.79,3.79,0,0,1,319.86,33H317.3a1.82,1.82,0,0,0-1-1.64,3.48,3.48,0,0,0-1.57-.32,3,3,0,0,0-1.67.42,1.32,1.32,0,0,0-.63,1.15,1.11,1.11,0,0,0,.62,1,7.64,7.64,0,0,0,1.68.51l2.23.54a5.68,5.68,0,0,1,2.2.91,3.13,3.13,0,0,1,1.14,2.61,3.7,3.7,0,0,1-1.34,2.9,5.73,5.73,0,0,1-3.82,1.16,6.17,6.17,0,0,1-3.95-1.15,3.78,3.78,0,0,1-1.45-3.13Z"/>
    <path d="M329.42,31.33v8.35h2.47a2.64,2.64,0,0,0,2.63-1.86,6.45,6.45,0,0,0,.41-2.45,5.93,5.93,0,0,0-.61-3,2.58,2.58,0,0,0-2.43-1.05Zm4.9-1.94A4.26,4.26,0,0,1,336.5,31a5.61,5.61,0,0,1,.9,2.07,9.93,9.93,0,0,1,.25,2.11,8.64,8.64,0,0,1-1,4.33,4.64,4.64,0,0,1-4.29,2.39h-5.5V29.11h5.5a6.77,6.77,0,0,1,2,.28"/>
    <polygon points="348.83 31.38 342.23 31.38 342.23 34.09 348.28 34.09 348.28 36.31 342.23 36.31 342.23 39.63 349.14 39.63 349.14 41.9 339.62 41.9 339.62 29.11 348.83 29.11 348.83 31.38"/>
    <polygon points="365.32 29.11 365.32 31.38 361.48 31.38 361.48 41.91 358.81 41.91 358.81 31.38 354.98 31.38 354.98 29.11 365.32 29.11"/>
    <path d="M366.69,29.11h2.72V37a4.43,4.43,0,0,0,.3,1.92A2.08,2.08,0,0,0,371.83,40a2,2,0,0,0,2.09-1.08,4.4,4.4,0,0,0,.31-1.92V29.11H377V37a6.49,6.49,0,0,1-.64,3.18c-.78,1.39-2.28,2.08-4.48,2.08s-3.71-.69-4.51-2.08a6.61,6.61,0,0,1-.63-3.18Z"/>
    <path d="M382.06,31.33v3.44h2.88a3.08,3.08,0,0,0,1.29-.21,1.43,1.43,0,0,0,.75-1.44,1.62,1.62,0,0,0-.73-1.56,2.62,2.62,0,0,0-1.24-.23Zm5.52-1.89a3.16,3.16,0,0,1,1.19.89,4,4,0,0,1,.65,1.08,3.81,3.81,0,0,1-.24,3.14,2.49,2.49,0,0,1-1.51,1.25,2.35,2.35,0,0,1,1.25,1,4.17,4.17,0,0,1,.36,2v.86a6,6,0,0,0,.08,1.19,1,1,0,0,0,.51.72v.33h-2.95l-.17-.69a5.8,5.8,0,0,1-.11-1.11l0-1.18a2.35,2.35,0,0,0-.42-1.63,2.19,2.19,0,0,0-1.53-.41h-2.61v5h-2.62V29.11h6.11a5.73,5.73,0,0,1,2,.33"/>
    <rect width="2.67" height="12.79" x="391.83" y="29.12"/>
    <path d="M398.75,37.94a2.79,2.79,0,0,0,.49,1.32,2.84,2.84,0,0,0,2.26.79,4.82,4.82,0,0,0,1.56-.21,1.48,1.48,0,0,0,1.13-1.49,1.1,1.1,0,0,0-.56-1,6.25,6.25,0,0,0-1.78-.6l-1.36-.3a8.72,8.72,0,0,1-2.79-1,3.1,3.1,0,0,1-1.29-2.76,3.67,3.67,0,0,1,1.25-2.84,5.39,5.39,0,0,1,3.69-1.13,5.58,5.58,0,0,1,3.47,1.07A3.82,3.82,0,0,1,406.33,33h-2.56a1.8,1.8,0,0,0-1-1.64,3.48,3.48,0,0,0-1.57-.32,3,3,0,0,0-1.67.42,1.31,1.31,0,0,0-.62,1.15,1.1,1.1,0,0,0,.62,1,7.49,7.49,0,0,0,1.67.51l2.23.54a5.55,5.55,0,0,1,2.2.91,3.12,3.12,0,0,1,1.13,2.61,3.64,3.64,0,0,1-1.34,2.9,5.67,5.67,0,0,1-3.81,1.16,6.26,6.26,0,0,1-4-1.15,3.79,3.79,0,0,1-1.43-3.13Z"/>
    <path d="M417,29.11h3.84v12.8h-2.48V33.26c0-.26,0-.61,0-1.06s0-.79,0-1L416,41.91h-2.59L411,31.16c0,.25,0,.6,0,1s0,.8,0,1.06v8.65h-2.48V29.11h3.87l2.33,10.06Z"/>
    <path d="M431.36,38.82a5.21,5.21,0,0,0,.94-3.32,5.22,5.22,0,0,0-.94-3.33A3,3,0,0,0,428.85,31a3.08,3.08,0,0,0-2.53,1.17,5.19,5.19,0,0,0-.94,3.34,5.15,5.15,0,0,0,.94,3.32A3.06,3.06,0,0,0,428.85,40a3,3,0,0,0,2.51-1.18m1.67,2a6.62,6.62,0,0,1-8.39,0,7,7,0,0,1-1.92-5.27,6.84,6.84,0,0,1,1.92-5.28,6.62,6.62,0,0,1,8.39,0A6.81,6.81,0,0,1,435,35.5,7,7,0,0,1,433,40.77"/>
    <path d="M102.53,8.72h-.32V9Zm-.32-1.42h.43a5,5,0,0,0,.72-1.86c-.46.09-.85.14-1.15.17Zm-1.51,0V5.82l-1.18.1a4.8,4.8,0,0,1,.88,1.38ZM97.07,3.87v7a5.28,5.28,0,0,0,2.48-2.12H97.47V7.3H99a6.34,6.34,0,0,0-.92-1L99,6l0,0a4.75,4.75,0,0,1-.74,0L97.4,4.57a26.35,26.35,0,0,0,6.41-.67v0Zm0,7.09v1.76H95.53l0-10.3h4A4.24,4.24,0,0,0,100.92.55l1.44.59a5.09,5.09,0,0,1-.81,1.28h5.65v8.92a1.18,1.18,0,0,1-.52,1,1.58,1.58,0,0,1-1,.42h-1.47l-.46-1.5a4.83,4.83,0,0,0,1.28.2c.37,0,.55-.13.55-.38l0-7.16h-1l.93,1a10.94,10.94,0,0,1-2,.56v0l1.16.44a7,7,0,0,1-.58,1.42h1.17V8.72h-2.45v0a7.61,7.61,0,0,1,2.67,1.55l-1,1a6,6,0,0,0-2.33-1.52v1.74h-1.5V9.29h0a6.14,6.14,0,0,1-2.55,2.77Zm12.14,6.68-1,1.45a8.55,8.55,0,0,1-6.64-4,9.26,9.26,0,0,1-6.94,4l-1-1.54c3.43-.4,5.53-1.38,6.33-2.91H94.45l0-1.44h6.15a5.05,5.05,0,0,0,.28-1.51l1.44.47-.16,1h6.18v1.46l-5.19,0c.85,1.51,2.46,2.44,4.81,2.79ZM95.51,4.48,94.37,5.59a7,7,0,0,0-3.17-2.9l1.09-1.07a8.15,8.15,0,0,1,3.22,2.86M92,18.69,90.45,18a13.6,13.6,0,0,0,2.65-7.63l1.48.49A15.13,15.13,0,0,1,92,18.69m2.6-10.42L93.36,9.35a7.44,7.44,0,0,0-3.09-2.91l1-1a7.72,7.72,0,0,1,3.29,2.87"/>
    <path d="M135.25,6.4h-3.9V8.07h3.9Zm0-2.93h-3.9V4.92h3.9Zm-2.08,15.35-.62-1.53,2,.06a.68.68,0,0,0,.52-.2.78.78,0,0,0,.21-.52V9.54h-5.43V2h7V17.26a1.48,1.48,0,0,1-.33.92,1.5,1.5,0,0,1-.88.52,14.56,14.56,0,0,1-2.41.12M126.89,6.45H123V8.07h3.88Zm0-3H123V5h3.88ZM123,9.54v9.67h-1.54V2h7V9.54Z"/>
    <path d="M158.06,14.06l1.05-1a7.91,7.91,0,0,1,3.33,2.54l-1.17,1a7.82,7.82,0,0,0-3.21-2.54m5.24-9V7.8h4.29V9.28H157.7V7.8h4.06V5.1h-3.32V3.62h3.32V1h1.54v2.6h3.58V5.1Zm.82,12V12.78h-6.83V11.32h6.83V9.5h1.54v1.82H168v1.46h-2.34v4.4a2.13,2.13,0,0,1-.38,1.26c-.25.37-.87.58-1.88.6l-1.48,0-.68-1.56,1.93.1a2.58,2.58,0,0,0,.45,0,.6.6,0,0,0,.4-.17Zm-8.5,2.1h-1.54V12.61l-2.48,1.06-1.12-1.25,3.6-1.49V6.84h-1.41a15.75,15.75,0,0,1-1.29,3.1L150,9.2a13.33,13.33,0,0,0,1.87-5.94l1.47.4a13.21,13.21,0,0,1-.22,1.7h1V1.14h1.54V5.36h1.81V6.84h-1.81v3.34l2-.77V11l-2,.87Z"/>
    <path d="M195.39,19h-2l-1.12-1.54h2.53c.39,0,.58-.21.58-.64V1.13h1.53V17.45a1.52,1.52,0,0,1-.42,1.12,1.38,1.38,0,0,1-1.06.44M192.05,3.09h1.52V14.85h-1.52Zm-3.45.32h-5.4V6.86h5.4Zm-3.5,7.05h5.43a24.15,24.15,0,0,1-.47,4.76,5.87,5.87,0,0,1-1,2.9,2.37,2.37,0,0,1-1.62.51,9.76,9.76,0,0,1-2.58-.45l-.36-1.67a16.58,16.58,0,0,0,2.79.64.92.92,0,0,0,.59-.18,6.75,6.75,0,0,0,.56-1.77,15.34,15.34,0,0,0,.43-3.28H185a10.41,10.41,0,0,1-3.94,7.22L179.82,18a8.07,8.07,0,0,0,1.56-1.37,8.16,8.16,0,0,0,1.27-2.13,9.9,9.9,0,0,0,.7-2.87,30.75,30.75,0,0,0,.17-3.29h-1.87V1.93h8.48V8.34h-5Z"/>
    <path d="M217.55,2.31h8.67V3.79h-8.67Zm6.3,6.38v8.44a1.78,1.78,0,0,1-.36,1.09,1.47,1.47,0,0,1-1,.59,9.88,9.88,0,0,1-1.94.13l-1.12,0L219,17.38l1.91.07a5.48,5.48,0,0,0,.65,0,1,1,0,0,0,.57-.15l.12-.32V8.69h-5.19V7.21h10.4V8.69Zm-9-8,1.19.94a20.7,20.7,0,0,1-4.95,5.52l-1.35-1.05A18.55,18.55,0,0,0,214.87.73M213,19V11.33l-2.26,1.6-1.2-1.23a20,20,0,0,0,6.22-6.09l1.23.83a23.41,23.41,0,0,1-2.46,3.3V19Z"/>
    <path d="M254.12,6.31h-2.75a6.74,6.74,0,0,0-.31,1,13,13,0,0,0,.42,2.2,15,15,0,0,0,1,3,14.78,14.78,0,0,0,1.63-6.22m3-1.48V6.31h-1.46A16.74,16.74,0,0,1,253.33,14a10.47,10.47,0,0,0,4.18,3.81l-1,1.35a15.41,15.41,0,0,1-2.94-2.48,7.1,7.1,0,0,1-1.24-1.51l0,0,.07.09q0,.35-1.29,1.62a17.68,17.68,0,0,1-3.08,2.4l-1-1.21A15,15,0,0,0,251.55,14a14,14,0,0,1-1.4-3.83h0a9.79,9.79,0,0,1-1.06,2.21l-1.56-.66a12.46,12.46,0,0,0,1.3-2.38,14.25,14.25,0,0,0,.92-2.74,16.34,16.34,0,0,0,.36-3c0-1.12.07-1.88.07-2.29a2,2,0,0,0,0-.4l1.63.17c0,1.2-.11,2.46-.27,3.79Zm-7.39,9.91-9.66,3.43L239,16.76l1.93-.6V6.93h1.59v8.74l1.8-.65V3.81H240V2.33h9.32V3.81h-3.44V8.26h2.68V9.74h-2.68v4.72L249.75,13Z"/>
    <path d="M281.66,13.92h2.71V11.34h-2.71Zm-1.54-4.06h5.78v5.53h-5.78Zm2.47-4.17h-6V7.42h6ZM275.06,4.3h9.06V8.82h-9.06Zm2.5,7h-2.63V14h2.63Zm-4.17-1.48h5.71v5.59h-5.71Zm0,6.91h13.45v1.47H272.56a1.37,1.37,0,0,1-1.13-.51,2,2,0,0,1-.42-1.35V3.56h-1.27V2.1h17V3.56H272.54V16c0,.52.29.79.85.79"/>
    <path d="M313.62,6.31h-2.74a9.85,9.85,0,0,0-.32,1,14.21,14.21,0,0,0,.42,2.2,13.72,13.72,0,0,0,1,3,14.74,14.74,0,0,0,1.61-6.22m3-1.48V6.31h-1.46A16.62,16.62,0,0,1,312.83,14,10.43,10.43,0,0,0,317,17.83l-1,1.35a15.58,15.58,0,0,1-2.92-2.48,7.67,7.67,0,0,1-1.26-1.51l0,0,.06.09c0,.23-.42.77-1.29,1.62a17.68,17.68,0,0,1-3.08,2.4l-1-1.21A14.87,14.87,0,0,0,311.06,14a13.71,13.71,0,0,1-1.4-3.83h0a9.32,9.32,0,0,1-1.05,2.21L307,11.7a13,13,0,0,0,1.3-2.38,15.83,15.83,0,0,0,.93-2.74,18.26,18.26,0,0,0,.36-3c0-1.12.07-1.88.07-2.29a2,2,0,0,0,0-.4l1.62.17A34.28,34.28,0,0,1,311,4.83Zm-7.38,9.91-9.67,3.43-1.1-1.41,1.93-.6V6.93H302v8.74l1.79-.65V3.81h-4.29V2.33h9.32V3.81h-3.43V8.26h2.67V9.74h-2.67v4.72L309.26,13Z"/>
    <path d="M341.61,14.12l-1.32.83a11,11,0,0,0-2.7-3.7l1.1-1a11,11,0,0,1,2.92,3.9M332.49,4.4v6.51a16.58,16.58,0,0,0,4-6.48l1.34.87-1,2.16h5.43V4.8h1.59V7.46h2.75V8.94h-2.75v8.35a1.69,1.69,0,0,1-.33.9,1.35,1.35,0,0,1-.76.59,13.34,13.34,0,0,1-2.2.1l-.78,0a13.87,13.87,0,0,0-.51-1.7l2.06.12a1.79,1.79,0,0,0,.62-.06.38.38,0,0,0,.31-.42V8.94h-5.6V7.78h0a7.38,7.38,0,0,1-.74,1.31V19.17H334.4v-8a9.68,9.68,0,0,1-1.31,1.25l-.63-.54a11,11,0,0,1-2.57,7.29l-1.32-.91a11,11,0,0,0,2-3.39,10.81,10.81,0,0,0,.43-3v-9h6.77a7.15,7.15,0,0,0-2-1.27,8.17,8.17,0,0,1,.79-.53c.33-.2.55-.34.68-.44a8,8,0,0,1,2.54,2.24h6.34V4.4Z"/>
    <path d="M374.68,9.22l1.13.94a8,8,0,0,1-3.15,2.8,8.44,8.44,0,0,0,3.83,5l-1.15,1.22a9.65,9.65,0,0,1-3.72-4.22,16.89,16.89,0,0,1-.95-6.23L369.11,9v7.82l2.51-1.21v1.61L367.79,19l-1-1.09a1.19,1.19,0,0,0,.69-1V7.65A16.31,16.31,0,0,0,371.16,7a11.72,11.72,0,0,0,2.15-.82l.9-.54,1.26,1.08a12.73,12.73,0,0,1-3.29,1.55l.21,3.15a6.76,6.76,0,0,0,2.29-2.22m-7.76-4.78V5.59H367l.58-1.46A10.78,10.78,0,0,0,368.3.68l1.48.51a20,20,0,0,1-.38,2.42h6.75V5.08h-7.22a13.89,13.89,0,0,1-2.2,3.51l-1.31-.94c.27-.32.7-.89,1.31-1.74h-4.22L362.39,9H366v.82a43.58,43.58,0,0,1-.29,4.91c-.18,1.76-.48,2.86-.88,3.28a2,2,0,0,1-1.59.66,14.11,14.11,0,0,1-1.6-.13l-.35-1.6,1.86.24.47-.22a5.25,5.25,0,0,0,.51-2.07,36.48,36.48,0,0,0,.33-4.42h-2.05a17,17,0,0,1-.77,4.8,12.16,12.16,0,0,1-2.4,3.81,4.55,4.55,0,0,1-.68-.5c-.29-.23-.5-.39-.64-.48a9.52,9.52,0,0,0,2.4-3.87,21.12,21.12,0,0,0,.52-5.45V5.91h-1.94V4.44h4a6.14,6.14,0,0,0-2.24-2.91,9.76,9.76,0,0,1,1.25-.85,6.12,6.12,0,0,1,2.47,3.05l-1,.67v0Z"/>
    <path d="M399.6,7.74v-1h-.05l-.42.57-1.25-.9c.18-.22.46-.61.83-1.15h-3V7.6h3l-.24,7a1.89,1.89,0,0,1-.44,1,1.54,1.54,0,0,1-1.32.54,4.74,4.74,0,0,1-1-.12,7.82,7.82,0,0,0-.31-1.43,4.39,4.39,0,0,1,.54.08c.24,0,.4.06.49.06a.49.49,0,0,0,.45-.2,9.85,9.85,0,0,0,.21-2.19q.12-2,.12-3.36h-1.51a25,25,0,0,1-.14,3.23,8.54,8.54,0,0,1-.6,2.11,6,6,0,0,1-1.41,2l-1.35-1a5.2,5.2,0,0,0,1.94-3.88l.12-4.32V5.24h-1.74V3.76h3a5.35,5.35,0,0,0-1.87-2l1-1A6.74,6.74,0,0,1,397,3.37l-.55.37v0h2.52V4.82H399a17.59,17.59,0,0,0,1.21-4l1.37.53a12.55,12.55,0,0,1-.39,1.83H406V4.64h-5.33a11,11,0,0,1-.83,1.64h5.53V7.72a10.19,10.19,0,0,1-2.11,2.19v.39h3.05v1.48H403.3V15c0,1-.88,1.54-2.6,1.54a5,5,0,0,1-.54,0l-.48-1.44c.51,0,.9.08,1.17.08.6,0,.9-.13.9-.38v-3h-2.86V10.3h2.86V9.15a8.65,8.65,0,0,0,1.73-1.41ZM388.43,2.08l1.1-.81A8.2,8.2,0,0,1,392,4.51l-1.47.83a6,6,0,0,0-2.09-3.26m18.28,14.76-.8,1.66h-10a6.31,6.31,0,0,1-4.58-1.81,11.56,11.56,0,0,1-2.32,2.6L388,18a9.67,9.67,0,0,0,3.37-5.76h-2.55V10.82a11.93,11.93,0,0,0,2.43-3.7h-2.85V5.64h4.42v1.5a2.4,2.4,0,0,1-.27.7,10.05,10.05,0,0,1-.52,1,7.86,7.86,0,0,1-.57.94q-.31.48-.69,1h2.16a21.69,21.69,0,0,1-.93,4.65,4,4,0,0,0,1.2.95,4.88,4.88,0,0,0,1.51.53,22.91,22.91,0,0,0,2.75.11h6.44Z"/>
    <path d="M429.46,12.43h-4.61v2.05h4.61ZM424.85,16v1h-1.53V11H431v5.78h-1.55V16ZM421.92,5.54h9.92V3.42h-9.92Zm0,2.66h12.87V9.89c0,.24-.05,1-.19,2.44-.06.75-.14,1.46-.22,2.13s-.17,1.33-.29,1.95a5.63,5.63,0,0,1-.36,1.29,2.23,2.23,0,0,1-.5.61,1.66,1.66,0,0,1-.68.36,4.21,4.21,0,0,1-1,.11,11.8,11.8,0,0,1-2-.19L429.06,17l2.77.4.23-.08.25-.24a2.51,2.51,0,0,0,.24-.69c.07-.35.17-.91.29-1.69s.21-1.57.29-2.38.13-1.67.17-2.61H422l-.18,2.84a10.56,10.56,0,0,1-.26,1.65A17.49,17.49,0,0,1,421,16a12.88,12.88,0,0,1-.75,1.6,12,12,0,0,1-.94,1.54L418.11,18a8.91,8.91,0,0,0,1.62-3.2,14.87,14.87,0,0,0,.66-4.47V1.94h13V7H421.92Z"/>
    <path d="M99.26,51.62h3.8V64.41H100.6V55.77c0-.26,0-.61,0-1.05s0-.8,0-1L98.22,64.41H95.66L93.27,53.67c0,.25,0,.6,0,1s0,.79,0,1.05v8.64H90.84V51.62h3.83L97,61.68Z"/>
    <path d="M110.24,54.55l1.59,5H108.6Zm-1.48-2.93-4.51,12.79H107l.84-2.61h4.67l.83,2.61h2.85l-4.45-12.79Z"/>
    <path d="M118.78,53a5.83,5.83,0,0,1,8.47.54,4.8,4.8,0,0,1,.86,2.39h-2.64a3.6,3.6,0,0,0-.65-1.39,2.77,2.77,0,0,0-4.26.34,5.71,5.71,0,0,0-.83,3.34,5.16,5.16,0,0,0,.86,3.24,2.66,2.66,0,0,0,2.16,1.07,2.44,2.44,0,0,0,2-.93,4.08,4.08,0,0,0,.64-1.5h2.64a5.73,5.73,0,0,1-1.74,3.39,5,5,0,0,1-3.55,1.31A5.27,5.27,0,0,1,118.57,63,7.14,7.14,0,0,1,117,58.15,7.17,7.17,0,0,1,118.78,53"/>
    <path d="M135,54.55l1.59,5h-3.23Zm-1.47-2.93L129,64.41h2.77l.84-2.61h4.65l.83,2.61H141l-4.45-12.79Z"/>
    <path d="M169,55.62a2.5,2.5,0,0,0-1.46-1.83,3.61,3.61,0,0,0-1.45-.29,3.1,3.1,0,0,0-2.5,1.17,5.3,5.3,0,0,0-1,3.49,4.37,4.37,0,0,0,1.06,3.32,3.44,3.44,0,0,0,2.4,1,3.16,3.16,0,0,0,2.18-.76,3.33,3.33,0,0,0,1-2h-2.9V57.54h5.26v6.87h-1.76l-.26-1.59a6.57,6.57,0,0,1-1.38,1.27,4.8,4.8,0,0,1-2.57.64,5.3,5.3,0,0,1-4.1-1.76,6.71,6.71,0,0,1-1.68-4.83,7.07,7.07,0,0,1,1.69-5,5.73,5.73,0,0,1,4.47-1.87A5.83,5.83,0,0,1,170,52.54a4.65,4.65,0,0,1,1.68,3.08Z"/>
    <path d="M181.5,61.34a5.25,5.25,0,0,0,.91-3.34,5.23,5.23,0,0,0-.91-3.32,3.23,3.23,0,0,0-5,0,5.23,5.23,0,0,0-.94,3.32,5.25,5.25,0,0,0,.94,3.34,3.26,3.26,0,0,0,5,0m1.64,1.95a6.5,6.5,0,0,1-8.28,0A7,7,0,0,1,173,58a6.79,6.79,0,0,1,1.91-5.27,6.46,6.46,0,0,1,8.28,0A6.79,6.79,0,0,1,185.05,58a7,7,0,0,1-1.91,5.29"/>
    <path d="M150.26,61.34a5.25,5.25,0,0,0,.92-3.34,5.23,5.23,0,0,0-.92-3.32,3,3,0,0,0-2.48-1.18,3,3,0,0,0-2.51,1.18,5.23,5.23,0,0,0-.93,3.32,5.25,5.25,0,0,0,.93,3.34,3,3,0,0,0,2.51,1.16,3,3,0,0,0,2.48-1.16m1.64,1.95a6.48,6.48,0,0,1-8.27,0A7,7,0,0,1,141.7,58a6.8,6.8,0,0,1,1.93-5.27,6.45,6.45,0,0,1,8.27,0A6.79,6.79,0,0,1,153.81,58a7,7,0,0,1-1.91,5.29"/>
    <polygon points="193.59 51.63 190.82 61.34 188.08 51.63 185.26 51.63 189.53 64.41 192.03 64.41 196.34 51.63 193.59 51.63"/>
    <polygon points="197.7 51.63 197.7 64.41 207.14 64.41 207.14 62.14 200.29 62.14 200.29 58.83 206.29 58.83 206.29 56.61 200.29 56.61 200.29 53.9 206.82 53.9 206.82 51.63 197.7 51.63"/>
    <path d="M211.67,53.84v3.45h2.86a2.86,2.86,0,0,0,1.28-.22,1.41,1.41,0,0,0,.74-1.44,1.63,1.63,0,0,0-.72-1.56,2.52,2.52,0,0,0-1.22-.23ZM217.14,52a3.24,3.24,0,0,1,1.19.9,3.85,3.85,0,0,1,.62,1.08,3.48,3.48,0,0,1,.24,1.34,4,4,0,0,1-.45,1.79,2.57,2.57,0,0,1-1.5,1.26,2.26,2.26,0,0,1,1.22,1,4.18,4.18,0,0,1,.37,2v.86a5.32,5.32,0,0,0,.08,1.19,1,1,0,0,0,.49.73v.32h-2.91c-.08-.29-.13-.52-.17-.69a5.7,5.7,0,0,1-.1-1.1l0-1.19a2.53,2.53,0,0,0-.43-1.63,2.09,2.09,0,0,0-1.51-.4h-2.59v5h-2.58V51.62h6a5.63,5.63,0,0,1,2,.33"/>
    <polygon points="229.17 51.63 229.17 60.53 224.16 51.63 221.39 51.63 221.39 64.41 223.85 64.41 223.85 55.34 228.99 64.41 231.63 64.41 231.63 51.63 229.17 51.63"/>
    <path d="M242.19,51.62H246V64.41h-2.45V55.77c0-.26,0-.61,0-1.05v-1l-2.39,10.74h-2.56L236.2,53.67c0,.25,0,.6,0,1s0,.79,0,1.05v8.64h-2.46V51.62h3.84l2.3,10.06Z"/>
    <path d="M361.71,51.62h3.8V64.41h-2.45V54.72c0-.45,0-.8,0-1l-2.4,10.74H358.1l-2.37-10.74c0,.25,0,.6,0,1v9.69h-2.45V51.62h3.84l2.31,10.06Z"/>
    <polygon points="248.19 51.63 248.19 64.41 257.62 64.41 257.62 62.14 250.78 62.14 250.78 58.83 256.77 58.83 256.77 56.61 250.78 56.61 250.78 53.9 257.31 53.9 257.31 51.63 248.19 51.63"/>
    <polygon points="267.27 51.63 267.27 60.53 262.26 51.63 259.5 51.63 259.5 64.41 261.95 64.41 261.95 55.34 267.1 64.41 269.72 64.41 269.72 51.63 267.27 51.63"/>
    <polygon points="270.87 51.63 270.87 53.89 274.67 53.89 274.67 64.41 277.3 64.41 277.3 53.89 281.1 53.89 281.1 51.63 270.87 51.63"/>
    <polygon points="288.09 51.63 288.09 53.89 291.89 53.89 291.89 64.41 294.52 64.41 294.52 53.89 298.31 53.89 298.31 51.63 288.09 51.63"/>
    <path d="M307.34,61.34a5.31,5.31,0,0,0,.91-3.34,5.29,5.29,0,0,0-.91-3.32,3.24,3.24,0,0,0-5,0A5.23,5.23,0,0,0,301.4,58a5.25,5.25,0,0,0,.94,3.34,3.27,3.27,0,0,0,5,0M309,63.29a6.5,6.5,0,0,1-8.28,0A7,7,0,0,1,298.77,58a6.83,6.83,0,0,1,1.92-5.27,6.46,6.46,0,0,1,8.28,0A6.8,6.8,0,0,1,310.89,58,7,7,0,0,1,309,63.29"/>
    <path d="M312.57,51.62h2.68v7.84a4.45,4.45,0,0,0,.31,1.93,2.05,2.05,0,0,0,2.09,1.07,2,2,0,0,0,2.07-1.07,4.45,4.45,0,0,0,.31-1.93V51.62h2.69v7.86a6.59,6.59,0,0,1-.63,3.17c-.77,1.39-2.26,2.08-4.44,2.08S314,64,313.2,62.65a6.48,6.48,0,0,1-.63-3.17Z"/>
    <path d="M327.6,53.84v3.45h2.86a2.89,2.89,0,0,0,1.28-.22,1.41,1.41,0,0,0,.74-1.44,1.62,1.62,0,0,0-.73-1.56,2.44,2.44,0,0,0-1.22-.23ZM333.06,52a3,3,0,0,1,1.19.9,4.17,4.17,0,0,1,.64,1.08,3.69,3.69,0,0,1,.23,1.34,3.86,3.86,0,0,1-.45,1.79,2.61,2.61,0,0,1-1.49,1.26,2.34,2.34,0,0,1,1.22,1,4.32,4.32,0,0,1,.36,2v.86a7.66,7.66,0,0,0,.06,1.19,1.12,1.12,0,0,0,.51.73v.32h-2.91c-.08-.29-.13-.52-.17-.69a6.61,6.61,0,0,1-.11-1.1l0-1.19a2.43,2.43,0,0,0-.41-1.63,2.15,2.15,0,0,0-1.52-.4H327.6v5H325V51.62h6a5.48,5.48,0,0,1,2,.33"/>
    <rect width="2.64" height="12.79" x="337.11" y="51.62"/>
    <path d="M343.81,60.45a2.65,2.65,0,0,0,.48,1.32,2.74,2.74,0,0,0,2.24.8,5.06,5.06,0,0,0,1.54-.21,1.49,1.49,0,0,0,1.11-1.5,1.1,1.1,0,0,0-.55-1,5.85,5.85,0,0,0-1.75-.59L345.52,59a8.12,8.12,0,0,1-2.75-1,3.09,3.09,0,0,1-1.29-2.75,3.71,3.71,0,0,1,1.25-2.85,5.27,5.27,0,0,1,3.65-1.13,5.54,5.54,0,0,1,3.43,1.07,3.88,3.88,0,0,1,1.5,3.11h-2.54a1.82,1.82,0,0,0-1-1.64,3.39,3.39,0,0,0-1.55-.32,2.88,2.88,0,0,0-1.65.42,1.31,1.31,0,0,0-.62,1.16,1.08,1.08,0,0,0,.61,1,6.75,6.75,0,0,0,1.66.53l2.21.53a5.45,5.45,0,0,1,2.17.92,3.15,3.15,0,0,1,1.14,2.6,3.68,3.68,0,0,1-1.35,2.9,5.51,5.51,0,0,1-3.76,1.16,6,6,0,0,1-3.91-1.15,3.79,3.79,0,0,1-1.43-3.13Z"/>
    <path d="M381.71,61.34a5.31,5.31,0,0,0,.91-3.34,5.29,5.29,0,0,0-.91-3.32,3.23,3.23,0,0,0-5,0,5.17,5.17,0,0,0-.94,3.32,5.19,5.19,0,0,0,.94,3.34,3.26,3.26,0,0,0,5,0m1.64,1.95a6.5,6.5,0,0,1-8.28,0A7,7,0,0,1,373.14,58a6.8,6.8,0,0,1,1.93-5.27,6.46,6.46,0,0,1,8.28,0A6.79,6.79,0,0,1,385.26,58a7,7,0,0,1-1.91,5.29"/>
    <polygon points="386.97 51.67 386.97 64.41 389.59 64.41 389.59 59.07 395.12 59.07 395.12 56.84 389.59 56.84 389.59 53.9 395.93 53.9 395.93 51.67 386.97 51.67"/>
    <polygon points="397.39 51.67 397.39 64.41 400.02 64.41 400.02 59.07 405.55 59.07 405.55 56.84 400.02 56.84 400.02 53.9 406.35 53.9 406.35 51.67 397.39 51.67"/>
    <rect width="2.63" height="12.79" x="407.58" y="51.62"/>
    <path d="M413.59,53a5.25,5.25,0,0,1,3.89-1.57,5.16,5.16,0,0,1,4.58,2.11,4.64,4.64,0,0,1,.87,2.39H420.3a3.92,3.92,0,0,0-.64-1.39,2.58,2.58,0,0,0-2.09-.84,2.55,2.55,0,0,0-2.2,1.18,5.79,5.79,0,0,0-.8,3.34,5.3,5.3,0,0,0,.83,3.24,2.69,2.69,0,0,0,2.17,1.07,2.41,2.41,0,0,0,2.05-.93,4.24,4.24,0,0,0,.65-1.5h2.64a5.89,5.89,0,0,1-1.73,3.39,5,5,0,0,1-3.57,1.31A5.29,5.29,0,0,1,413.39,63a7.14,7.14,0,0,1-1.55-4.86A7.21,7.21,0,0,1,413.59,53"/>
    <polygon points="424.85 51.63 424.85 64.41 434.28 64.41 434.28 62.14 427.43 62.14 427.43 58.83 433.43 58.83 433.43 56.61 427.43 56.61 427.43 53.9 433.96 53.9 433.96 51.63 424.85 51.63"/>
</svg>
